<?xml version="1.0" encoding="utf-8"?>
<!-- Generator: Adobe Illustrator 25.1.0, SVG Export Plug-In . SVG Version: 6.00 Build 0)  -->
<svg version="1.1" id="Capa_1" xmlns="http://www.w3.org/2000/svg" xmlns:xlink="http://www.w3.org/1999/xlink" x="0px" y="0px"
	 viewBox="0 0 512 512" style="enable-background:new 0 0 512 512;" xml:space="preserve">
<style type="text/css">
	.st0{fill:#3F6E90;}
	.st1{fill:#D8ECFE;}
	.st2{fill:#355F7F;}
	.st3{fill:#FFFFFF;}
	.st4{fill:#AEE49E;}
	.st5{fill:#8BD8A5;}
	.st6{fill:#FFCEBF;}
	.st7{fill:#FFB09E;}
	.st8{fill:#B3DAFE;}
</style>
<g>
	<g>
		<path class="st0" d="M23.2,440.9V97.4c0-17.1,13.8-30.9,30.9-30.9h403.8c17.1,0,30.9,13.8,30.9,30.9v343.5H23.2z"/>
		<path class="st1" d="M54.1,456.3V104.6c0-4,3.2-7.2,7.2-7.2h389.4c4,0,7.2,3.2,7.2,7.2v351.8H54.1z"/>
		<path class="st2" d="M301.3,422.9v14c0,5.7-4.6,10.3-10.3,10.3h-70c-5.7,0-10.3-4.6-10.3-10.3v-14c0-5.7-4.6-10.3-10.3-10.3H10.3
			c-5.7,0-10.3,4.6-10.3,10.3v36.1c0,17.1,13.8,30.9,30.9,30.9h450.2c17.1,0,30.9-13.8,30.9-30.9v-36.1c0-5.7-4.6-10.3-10.3-10.3
			H311.6C305.9,412.6,301.3,417.2,301.3,422.9z"/>
	</g>
	<g>
		<path class="st3" d="M348.3,220.9c0,28-12.5,53.1-32.1,70c-16.2,13.9-37.2,2.6-60.1,2.6s-44,11.2-60.1-2.6
			c-19.7-16.9-32.1-42-32.1-70c0-51,41.3-92.3,92.3-92.3S348.3,169.9,348.3,220.9L348.3,220.9z"/>
		<path class="st4" d="M256,236.1c-31.5,0-57.3,24.1-60.1,54.8c16.2,13.9,37.2,22.3,60.1,22.3s44-8.4,60.1-22.3
			C313.3,260.1,287.5,236.1,256,236.1z"/>
		<path class="st5" d="M306.8,263.8c-13.1,25-37.4,43.2-66.2,48.1c25.1,4.3,54.3-2.2,75.6-21c0,0,0,0,0,0
			C315.2,280.9,311.9,271.7,306.8,263.8z"/>
		<path class="st6" d="M256,248.8c-17.6,0-31.9-14.3-31.9-31.9v-12.2c0-17.6,14.3-31.9,31.9-31.9s31.9,14.3,31.9,31.9v12.2
			C287.9,234.5,273.6,248.8,256,248.8z"/>
		<path class="st7" d="M256,172.9c-5.6,0-10.9,1.5-15.5,4c9.8,5.4,16.4,15.9,16.4,27.9v12.2c0,12-6.6,22.4-16.4,27.9
			c4.6,2.5,9.8,4,15.5,4c17.6,0,31.9-14.3,31.9-31.9v-12.2C287.9,187.2,273.6,172.9,256,172.9z"/>
	</g>
	<path class="st8" d="M345.8,381.7H166.2c-5.7,0-10.3-4.6-10.3-10.3v-15.5c0-5.7,4.6-10.3,10.3-10.3h179.5c5.7,0,10.3,4.6,10.3,10.3
		v15.5C356.1,377.1,351.4,381.7,345.8,381.7z"/>
	<g>
		<path class="st8" d="M512,124.3c0,8.8-9.8,16.1-12,24.2c-2.2,8.4,2.5,19.6-1.7,26.9c-4.3,7.4-16.4,8.9-22.5,14.9
			s-7.5,18.2-14.9,22.5c-7.3,4.2-18.6-0.5-26.9,1.7c-8.1,2.2-15.4,12-24.2,12s-16.1-9.8-24.2-12c-8.4-2.2-19.6,2.5-26.9-1.7
			c-7.4-4.3-8.9-16.4-14.9-22.5s-18.2-7.5-22.5-14.9c-4.2-7.3,0.5-18.6-1.7-26.9c-2.2-8.1-12-15.4-12-24.2s9.8-16.1,12-24.2
			c2.2-8.4-2.5-19.6,1.7-26.9c4.3-7.4,16.4-8.9,22.5-14.9s7.5-18.2,14.9-22.5c7.3-4.2,18.6,0.5,26.9-1.7c8.1-2.2,15.4-12,24.2-12
			S426,32,434,34.1c8.4,2.2,19.6-2.5,26.9,1.7c7.4,4.3,8.9,16.4,14.9,22.5s18.2,7.5,22.5,14.9c4.2,7.3-0.5,18.6,1.7,26.9
			C502.2,108.2,512,115.5,512,124.3L512,124.3z"/>
		<g>
			<path class="st3" d="M389.1,163.4c-3.5,0-6.7-1.4-9.2-3.8L358,137.7c-3-3-3-7.9,0-10.9c3-3,7.9-3,10.9,0l20.2,20.2l61.7-61.7
				c3-3,7.9-3,10.9,0c3,3,3,7.9,0,10.9l-63.5,63.5C395.8,162.1,392.5,163.4,389.1,163.4z"/>
		</g>
	</g>
</g>
</svg>
