<?xml version="1.0" encoding="utf-8"?>
<!-- Generator: Adobe Illustrator 25.1.0, SVG Export Plug-In . SVG Version: 6.00 Build 0)  -->
<svg version="1.1" id="Layer_1" xmlns="http://www.w3.org/2000/svg" xmlns:xlink="http://www.w3.org/1999/xlink" x="0px" y="0px"
	 viewBox="0 0 42 26.2" style="enable-background:new 0 0 42 26.2;" xml:space="preserve">
<style type="text/css">
	.st0{fill:#F7981F;}
	.st1{fill:#FFFFFF;}
</style>
<polygon class="st0" points="12.4,12.8 11.3,17.3 13.5,17.3 "/>
<path class="st0" d="M1.6,17.7v0.7c0,3.3,3.6,6.7,8,6.7h23.5c4.4,0,8-3.3,8-6.7v-0.7c0-3.1-3.1-6.9-7.1-7.3c-0.1-2.8-2.3-5-5.1-5
	c-1.1,0-2.1,0.3-2.9,0.9c-1.6-3.5-5.1-6-9.2-6c-5.6,0-10.1,4.5-10.1,10.1c0,0.1,0,0.2,0,0.3C3.7,11.7,1.6,15.2,1.6,17.7z M14.3,20.8
	l-0.6-2.3H11l-0.6,2.3H8.9l2.6-9.3h1.9l2.4,9.3H14.3z M23.3,20.8h-1.7l-1.2-7l0,0l-1.2,7h-1.7l-1.8-9.3h1.5l1.2,7.2l0,0l1.2-7.2h1.6
	l1.2,7.3l0,0l1.2-7.3h1.5C25.2,11.5,23.3,20.8,23.3,20.8z M28.7,21c-2.3,0-2.8-1.5-2.8-2.8V18h1.5v0.2c0,1.1,0.5,1.7,1.5,1.7
	c0.9,0,1.4-0.7,1.4-1.4c0-1-0.5-1.4-1.3-1.7l-1-0.4c-1.4-0.5-1.9-1.2-1.9-2.5c0-1.7,1.1-2.6,2.9-2.6c2.4,0,2.6,1.5,2.6,2.4V14h-1.5
	v-0.2c0-0.8-0.4-1.3-1.3-1.3c-0.6,0-1.2,0.4-1.2,1.3c0,0.8,0.4,1.2,1.4,1.6l1,0.4c1.3,0.5,1.9,1.2,1.9,2.5
	C31.8,20.2,30.6,21,28.7,21z"/>
<path class="st1" d="M11.5,11.5l-2.6,9.3h1.5l0.6-2.3h2.7l0.6,2.3h1.5l-2.4-9.3C13.4,11.5,11.5,11.5,11.5,11.5z M11.3,17.3l1.1-4.6
	l0,0l1.1,4.6H11.3z"/>
<polygon class="st1" points="22.5,18.8 22.5,18.8 21.2,11.5 19.6,11.5 18.4,18.7 18.4,18.7 17.2,11.5 15.7,11.5 17.5,20.8 
	19.2,20.8 20.4,13.8 20.4,13.8 21.6,20.8 23.3,20.8 25.2,11.5 23.7,11.5 "/>
<path class="st1" d="M29.9,15.7l-1-0.4c-1-0.4-1.4-0.8-1.4-1.6c0-1,0.6-1.3,1.2-1.3c0.9,0,1.3,0.5,1.3,1.3V14h1.5v-0.2
	c0-1-0.2-2.4-2.6-2.4c-1.7,0-2.9,0.9-2.9,2.6c0,1.3,0.6,2,1.9,2.5l1,0.4c0.8,0.2,1.3,0.7,1.3,1.7c0,0.7-0.5,1.4-1.4,1.4
	c-1,0-1.5-0.6-1.5-1.7v-0.2h-1.5v0.2c0,1.3,0.5,2.8,2.8,2.8c1.9,0,3.1-0.8,3.1-2.8C31.8,16.9,31.2,16.2,29.9,15.7z"/>
</svg>
