<?xml version="1.0" encoding="utf-8"?>
<!-- Generator: Adobe Illustrator 25.1.0, SVG Export Plug-In . SVG Version: 6.00 Build 0)  -->
<svg version="1.1" id="Isolation_Mode" xmlns="http://www.w3.org/2000/svg" xmlns:xlink="http://www.w3.org/1999/xlink" x="0px"
	 y="0px" viewBox="0 0 171.1 137.7" style="enable-background:new 0 0 171.1 137.7;" xml:space="preserve">
<style type="text/css">
	.st0{fill:#EA4335;}
	.st1{fill:#4285F4;}
	.st2{fill:#34A853;}
	.st3{fill:#FBBC05;}
</style>
<g id="g730" transform="translate(.008 -.004)">
	<g id="g710">
		<path id="path702" class="st0" d="M108.6,37.9h5.2l14.9-14.9l0.7-6.3C101.7-7.7,59.5-5.1,35,22.6c-6.8,7.7-11.7,16.8-14.4,26.7
			c1.7-0.7,3.5-0.8,5.2-0.3l29.7-4.9c0,0,1.5-2.5,2.3-2.4c13.2-14.5,35.5-16.2,50.8-3.9H108.6z"/>
		<path id="path704" class="st1" d="M149.9,49.4c-3.4-12.6-10.4-23.9-20.2-32.6l-20.9,20.9c8.8,7.2,13.8,18.1,13.6,29.4v3.7
			c10.3,0,18.6,8.3,18.6,18.6s-8.3,18.6-18.6,18.6H85.2l-3.7,3.8V134l3.7,3.7h37.2c26.7,0.2,48.5-21.3,48.7-47.9
			C171.2,73.6,163.2,58.4,149.9,49.4z"/>
		<path id="path706" class="st2" d="M48,137.5h37.2v-29.7H48c-2.7,0-5.3-0.6-7.7-1.7l-5.2,1.6l-15,14.9l-1.3,5.2
			C27.3,134.1,37.5,137.5,48,137.5L48,137.5z"/>
		<path id="path708" class="st3" d="M48,41C21.3,41.2-0.2,62.9,0,89.6c0.1,14.9,7,28.9,18.9,38l21.5-21.5
			c-9.3-4.2-13.5-15.2-9.3-24.6S46.4,68,55.7,72.2c4.1,1.9,7.4,5.2,9.3,9.3L86.5,60C77.4,48,63.1,40.9,48,41z"/>
	</g>
	<g id="g714">
		<path id="path712" class="st3" d="M0,0"/>
	</g>
</g>
</svg>
