<?xml version="1.0" encoding="utf-8"?>
<!-- Generator: Adobe Illustrator 25.1.0, SVG Export Plug-In . SVG Version: 6.00 Build 0)  -->
<svg version="1.1" id="Capa_1" xmlns="http://www.w3.org/2000/svg" xmlns:xlink="http://www.w3.org/1999/xlink" x="0px" y="0px"
	 viewBox="0 0 512 512" style="enable-background:new 0 0 512 512;" xml:space="preserve">
<style type="text/css">
	.st0{fill:#C4E2FF;}
	.st1{fill:#FFCEBF;}
	.st2{fill:#384949;}
	.st3{fill:#FFB09E;}
	.st4{fill:#FD544D;}
	.st5{fill:#B3DAFE;}
	.st6{fill:#FFBFB1;}
	.st7{fill:#8AC9FE;}
	.st8{fill:#C4573A;}
	.st9{fill:#A74B30;}
	.st10{fill:#537983;}
	.st11{fill:#EE6161;}
	.st12{fill:#D83131;}
	.st13{fill:#C8EFFE;}
	.st14{fill:#99E6FC;}
	.st15{fill:#3E5959;}
</style>
<g>
	<g>
		<path class="st0" d="M74.9,396.2H62.3c-23.6,0-42.7,19.1-42.7,42.7V512h255.8v-73.1c0-23.6-19.1-42.7-42.7-42.7H74.9z"/>
		<path class="st1" d="M108,314.1v64.1l39.4,26.2l39.4-26.2v-64.1H108z"/>
		<path class="st1" d="M242.4,221c-0.4,0-0.9,0-1.3,0c-7.5-45-46.6-79.2-93.7-79.2c-47.1,0-86.2,34.3-93.7,79.2c-0.4,0-0.9,0-1.3,0
			c-17.8,0-32.3,14.4-32.3,32.3s14.4,32.3,32.3,32.3c0.4,0,0.9,0,1.3,0c7.5,45,46.6,79.2,93.7,79.2s86.2-34.3,93.7-79.2
			c0.4,0,0.9,0,1.3,0c17.8,0,32.3-14.4,32.3-32.3S260.3,221,242.4,221L242.4,221z"/>
		<g>
			<g>
				<path class="st2" d="M101,276.6c-4.3,0-7.7-3.5-7.7-7.7v-17.5c0-4.3,3.5-7.7,7.7-7.7s7.7,3.5,7.7,7.7v17.5
					C108.8,273.1,105.3,276.6,101,276.6z"/>
			</g>
			<g>
				<path class="st2" d="M193.8,276.6c-4.3,0-7.7-3.5-7.7-7.7v-17.5c0-4.3,3.5-7.7,7.7-7.7s7.7,3.5,7.7,7.7v17.5
					C201.5,273.1,198.1,276.6,193.8,276.6z"/>
			</g>
		</g>
		<g>
			<path class="st3" d="M147.4,326.5c-15.4,0-27.9-12.5-27.9-27.9c0-4.3,3.5-7.7,7.7-7.7c4.3,0,7.7,3.5,7.7,7.7
				c0,6.9,5.6,12.5,12.5,12.5c6.9,0,12.5-5.6,12.5-12.5c0-4.3,3.5-7.7,7.7-7.7c4.3,0,7.7,3.5,7.7,7.7
				C175.3,314,162.8,326.5,147.4,326.5L147.4,326.5z"/>
		</g>
		<path class="st4" d="M147.4,404.4l-20.2,21.1l7.3,28.7h25.7l7.3-28.7L147.4,404.4z"/>
		<path class="st4" d="M134.5,454.1L123.2,512h48.5l-11.4-57.9H134.5z"/>
		<g>
			<path class="st5" d="M108,378.1l-33.3,18.1l47,35l25.7-26.8L108,378.1z"/>
			<path class="st5" d="M186.8,378.1l33.3,18.1l-47,35l-25.7-26.8L186.8,378.1z"/>
			<path class="st5" d="M232.8,396.2h-29.2c23.6,0,42.7,19.1,42.7,42.7V512h29.2v-73.1C275.5,415.3,256.4,396.2,232.8,396.2z"/>
		</g>
		<path class="st6" d="M242.4,221c-0.4,0-0.9,0-1.3,0c-7.5-45-46.6-79.2-93.7-79.2c-5,0-9.8,0.4-14.6,1.1
			c40.4,6.2,72.4,37.9,79.1,78.1c0.4,0,0.9,0,1.3,0c17.8,0,32.3,14.4,32.3,32.3s-14.4,32.3-32.3,32.3c-0.4,0-0.9,0-1.3,0
			c-6.7,40.2-38.7,71.9-79.1,78.1c4.8,0.7,9.6,1.1,14.6,1.1c47.1,0,86.2-34.3,93.7-79.2c0.4,0,0.9,0,1.3,0
			c17.8,0,32.3-14.4,32.3-32.3S260.3,221,242.4,221L242.4,221z"/>
		<path class="st7" d="M186.8,378.1l-13.1,8.7l17.2,9.3l-29.9,22.3l12.2,12.7l47-35L186.8,378.1z"/>
		<path class="st8" d="M212.5,110.4c-7.1-11.4-19.7-19-34.2-19H101c-39.4,0-71.3,31.9-71.3,71.3V221h135c13.8,0,26.4-5.2,35.9-13.7
			c6.7,8.4,16.9,13.7,28.5,13.7h36v-57.2C265.1,134.5,241.6,110.8,212.5,110.4L212.5,110.4z"/>
		<g>
			<path class="st9" d="M212.5,110.4c-7.1-11.4-19.7-19-34.2-19h-29.2c14.4,0,27.1,7.6,34.2,19c29.1,0.4,52.6,24.1,52.6,53.3V221
				h29.2v-57.2C265.1,134.5,241.6,110.8,212.5,110.4z"/>
		</g>
	</g>
	<g>
		<path class="st10" d="M483,362.7h-20.2c-2.1-7.4-5-14.5-8.7-21l14.3-14.3c3.7-3.7,3.7-9.6,0-13.3l-24-24c-3.7-3.7-9.6-3.7-13.3,0
			l-14.3,14.3c-6.6-3.7-13.6-6.6-21-8.7v-20.2c0-5.2-4.2-9.4-9.4-9.4h-34c-5.2,0-9.4,4.2-9.4,9.4v20.2c-7.4,2.1-14.5,5-21,8.7
			L307.7,290c-3.7-3.7-9.6-3.7-13.3,0l-24,24c-3.7,3.7-3.7,9.6,0,13.3l14.3,14.3c-3.7,6.6-6.6,13.6-8.7,21h-20.2
			c-5.2,0-9.4,4.2-9.4,9.4v34c0,5.2,4.2,9.4,9.4,9.4H276c2.1,7.4,5,14.5,8.7,21l-14.3,14.3c-3.7,3.7-3.7,9.6,0,13.3l24,24
			c3.7,3.7,9.6,3.7,13.3,0l14.3-14.3c6.6,3.7,13.6,6.6,21,8.7v20.2c0,5.2,4.2,9.4,9.4,9.4h34c5.2,0,9.4-4.2,9.4-9.4v-20.2
			c7.4-2.1,14.5-5,21-8.7l14.3,14.3c3.7,3.7,9.6,3.7,13.3,0l24-24c3.7-3.7,3.7-9.6,0-13.3L454,436.4c3.7-6.6,6.6-13.6,8.7-21H483
			c5.2,0,9.4-4.2,9.4-9.4v-34C492.4,366.9,488.2,362.7,483,362.7L483,362.7z"/>
		<path class="st11" d="M392.6,234.8v-21.3c0-1.8-1.5-3.3-3.3-3.3h-45.8c-1.8,0-3.3,1.5-3.3,3.3v21.3c0,1.8,1.5,3.3,3.3,3.3h45.8
			C391.2,238,392.6,236.6,392.6,234.8L392.6,234.8z"/>
		<path class="st12" d="M414,141.5l-47.5-69.7l-47.5,69.7c-1.4,2.1,0.1,4.9,2.6,4.9h13h5.8v40c0,1.7,1.4,3.1,3.1,3.1h46.1
			c1.7,0,3.1-1.4,3.1-3.1v-40h5.8h13C413.9,146.4,415.4,143.6,414,141.5z"/>
		<circle class="st13" cx="369.4" cy="389" r="47.3"/>
		<path class="st14" d="M369.4,341.7c-4,0-7.9,0.5-11.7,1.5c20.4,5.2,35.6,23.8,35.6,45.8c0,22-15.2,40.6-35.6,45.8
			c3.7,1,7.7,1.5,11.7,1.5c26.1,0,47.3-21.2,47.3-47.3S395.5,341.7,369.4,341.7z"/>
		<g>
			<path class="st15" d="M366.5,275.4v20.2c7.4,2.1,14.5,5,21,8.7l8.6-8.6c-0.1,0-0.3-0.1-0.4-0.1v-20.2c0-5.2-4.2-9.4-9.4-9.4
				h-29.2C362.3,266,366.5,270.2,366.5,275.4L366.5,275.4z"/>
			<path class="st15" d="M483,362.7h-20.2c-2.1-7.4-5-14.5-8.7-21l14.3-14.3c3.7-3.7,3.7-9.6,0-13.3l-24-24c-3.7-3.7-9.6-3.7-13.3,0
				l-8,8l16,16c3.7,3.7,3.7,9.6,0,13.3l-14.3,14.3c3.7,6.6,6.6,13.6,8.7,21h20.2c5.2,0,9.4,4.2,9.4,9.4v34c0,5.2-4.2,9.4-9.4,9.4
				h-20.2c-2.1,7.4-5,14.5-8.7,21l14.3,14.3c3.7,3.7,3.7,9.6,0,13.3l-16,16l8,8c3.7,3.7,9.6,3.7,13.3,0l24-24
				c3.7-3.7,3.7-9.6,0-13.3L454,436.4c3.7-6.6,6.6-13.6,8.7-21H483c5.2,0,9.4-4.2,9.4-9.4v-34C492.4,366.9,488.2,362.7,483,362.7
				L483,362.7z"/>
		</g>
	</g>
	<g>
		<path class="st3" d="M212.7,302.8h-11.7c-4.3,0-7.7-3.5-7.7-7.7s3.5-7.7,7.7-7.7h11.7c4.3,0,7.7,3.5,7.7,7.7
			S216.9,302.8,212.7,302.8z"/>
	</g>
	<g>
		<path class="st3" d="M93.9,302.8H82.2c-4.3,0-7.7-3.5-7.7-7.7s3.5-7.7,7.7-7.7h11.7c4.3,0,7.7,3.5,7.7,7.7S98.1,302.8,93.9,302.8z
			"/>
	</g>
</g>
</svg>
