<?xml version="1.0" encoding="utf-8"?>
<!-- Generator: Adobe Illustrator 25.1.0, SVG Export Plug-In . SVG Version: 6.00 Build 0)  -->
<svg version="1.1" id="Layer_1" xmlns="http://www.w3.org/2000/svg" xmlns:xlink="http://www.w3.org/1999/xlink" x="0px" y="0px"
	 viewBox="0 0 512 512" style="enable-background:new 0 0 512 512;" xml:space="preserve">
<style type="text/css">
	.st0{fill:#55C0EB;}
	.st1{fill:#F3F3F3;}
	.st2{fill:#415A6B;}
	.st3{fill:#FFFFFF;}
</style>
<path class="st0" d="M512,256c0,141.9-114.1,256-256,256S0,397.9,0,256S114.1,0,256,0S512,114.1,512,256z"/>
<g>
	<path class="st1" d="M19.2,347.7c0-1.1,0-1.1,0-1.1C20.3,346.7,20.3,347.7,19.2,347.7c2.1,1.1,2.1,0,3.2-1.1c0,0-1.1,0-1.1-1.1
		c0-2.1,1.1-3.2,3.2-4.3c0,1.1,0,2.1,1.1,2.1c1.1,1.1,2.1,2.1,3.2,2.1c1.1-1.1,2.1-2.1,3.2-3.2c2.1,1.1,4.3,3.2,6.4,4.3
		c1.1,1.1,5.3,1.1,6.4,0c0,0,0-1.1,1.1-1.1c0,0,0-1.1,1.1-1.1c1.1-1.1,1.1-1.1,1.1-2.1c0-1.1,0-1.1,0-2.1c1.1,1.1,2.1,3.2,2.1,4.3
		c1.1,3.2,2.1,3.2,5.3,3.2s5.3-1.1,8.5,0c1.1,0,1.1,0,2.1,0c2.1,0,3.2-1.1,4.3-1.1c3.2,0,4.3-1.1,6.4-3.2c1.1-1.1,2.1-1.1,3.2-1.1
		c1.1,0,2.1,0,4.3,0c2.1,1.1,5.3,1.1,7.5,3.2c1.1,1.1,2.1,1.1,3.2,2.1c2.1,0,3.2-1.1,5.3-1.1c3.2,0,5.3-2.1,7.5-3.2s3.2-2.1,4.3-3.2
		c1.1-1.1,2.1-2.1,4.3-1.1h1.1c1.1,0,3.2,0,4.3,0c4.3,0,7.5-1.1,9.6-4.3c1.1-1.1,1.1-2.1,0-3.2c-1.1-1.1-1.1-2.1-1.1-4.3
		c0-1.1,0-2.1,0-2.1c0-2.1-1.1-3.2-2.1-4.3c-1.1-1.1-2.1-2.1-2.1-4.3c-1.1-1.1-1.1-2.1-2.1-3.2c1.1-1.1,0-2.1,0-4.3
		c0-1.1-1.1-2.1-1.1-3.2c-1.1-2.1-3.2,0-5.3-1.1c0,0,0,0,0-1.1l0,0c1.1,0,2.1,0,3.2,0c0-1.1-1.1-1.1-1.1-2.1
		c-1.1-1.1-1.1-1.1-2.1-2.1c1.1,0,1.1,0,1.1,0c1.1,0,3.2,1.1,3.2-2.1v-1.1c1.1-1.1,2.1-3.2,1.1-4.3c0-3.2-1.1-6.4-3.2-8.5
		c-1.1-1.1-3.2-2.1-2.1-4.3v-1.1v-1.1c1.1-2.1,0-4.3-1.1-5.3c1.1-1.1,1.1-2.1,0-4.3c-1.1-1.1-1.1-2.1,1.1-2.1
		c-1.1-1.1-3.2-2.1-4.3-3.2c-1.1-1.1-1.1-1.1-2.1-2.1c-1.1-1.1-1.1-2.1-1.1-2.1c-1.1-1.1-2.1-1.1-1.1-3.2v-1.1
		c0-1.1-1.1-2.1-1.1-3.2c0,0,0,0-1.1,1.1l0,0c-2.1-1.1-3.2-1.1-4.3,1.1c0,0-1.1,0-1.1,1.1c0,0,0,0,0-1.1s1.1-1.1,1.1-2.1
		c1.1-1.1,2.1-1.1,2.1-2.1l0,0c1.1,0,1.1,0,2.1,0c0-1.1,0-2.1-1.1-2.1s-2.1-1.1-3.2-1.1c-1.1,0-2.1-1.1-3.2-2.1c-1.1,0-1.1,0-2.1,0
		c-1.1,0-1.1,0-2.1,0c-1.1,0-2.1,0-2.1,0c0-1.1,0-2.1,0-2.1c0-2.1-1.1-2.1-2.1-3.2c-3.2,0-5.3,0-5.3-2.1c0-1.1,0-3.2,1.1-5.3
		c0-1.1,1.1-2.1,1.1-2.1c1.1-1.1,2.1-2.1,4.3-2.1c2.1-1.1,2.1-2.1,1.1-4.3c-1.1-2.1-3.2-3.2-4.3-5.3l-2.1-2.1
		c2.1-1.1,4.3-2.1,6.4-3.2c1.1-1.1,3.2-1.1,4.3-2.1l1.1-1.1c-1.1-1.1-1.1-2.1-2.1-2.1c-2.1-2.1-4.3-2.1-6.4,0l0,0
		c-1.1,0-2.1,0-3.2,0c-1.1-1.1-1.1-2.1-2.1-3.2c-2.1-1.1-2.1-3.2-2.1-5.3c1.1-3.2,2.1-6.4,4.3-8.5c1.1,0,1.1-1.1,2.1-2.1
		s1.1-1.1,3.2-1.1h1.1c0,0,0-1.1,1.1-1.1c1.1-1.1,2.1-2.1,2.1-2.1c1.1,1.1,2.1,0,3.2,0c1.1,2.1,2.1,2.1,3.2,1.1
		c1.1,0,1.1,1.1,1.1,1.1c1.1,1.1,3.2,2.1,3.2,4.3c0,2.1,2.1,3.2,3.2,4.3c0-1.1,1.1-1.1,1.1-2.1l-1.1-1.1c0,0,1.1,0,1.1,1.1
		c1.1,1.1,3.2,2.1,4.3,4.3c1.1,1.1,1.1,2.1,1.1,3.2s1.1,1.1,1.1,2.1c2.1,1.1,2.1,3.2,1.1,5.3c-1.1,1.1-2.1,2.1-2.1,3.2
		c-1.1,2.1-1.1,3.2-1.1,5.3c1.1,1.1,2.1,1.1,3.2,0c1.1-1.1,2.1-2.1,2.1-2.1c1.1-2.1,2.1-4.3,3.2-6.4c1.1-1.1,4.3-2.1,5.3-2.1
		c1.1,0,2.1,0,4.3,1.1h1.1c2.1,1.1,3.2,1.1,5.3,2.1l1.1-1.1c1.1,0,1.1,0,2.1,1.1l0,0c0,0,0-1.1-1.1-1.1c1.1,0,1.1,1.1,2.1,1.1
		c1.1-2.1,2.1-3.2,3.2-5.3l0,0c1.1-1.1,2.1-1.1,2.1-2.1c0,1.1-1.1,2.1-2.1,2.1c-1.1,1.1-1.1,1.1-2.1,2.1c2.1-1.1,4.3-1.1,5.3-3.2
		v1.1c2.1,0,3.2,0,4.3-2.1c1.1,1.1,2.1,1.1,3.2,2.1l0,0c-1.1,0-1.1-1.1-2.1-1.1l0,0c2.1,1.1,4.3,2.1,5.3,4.3c0-1.1,1.1-2.1,1.1-2.1
		c1.1-1.1,3.2-2.1,5.3-1.1c1.1,0,1.1,0,2.1,0c1.1,1.1,2.1,2.1,4.3,1.1h1.1c1.1,1.1,3.2,2.1,4.3,2.1c0,0-1.1,0-1.1,1.1
		c0,0-1.1,0-2.1-1.1c-2.1,0-3.2,1.1-2.1,3.2c4.3-1.1,6.4,2.1,9.6,3.2v-1.1l0,0l0,0l0,0c0-1.1,0-2.1-2.1-2.1c-1.1,0-1.1-4.3-1.1-5.3
		c1.1-1.1,1.1-3.2,2.1-3.2c-1.1-1.1-1.1-2.1-1.1-3.2l0,0l1.1,1.1c1.1,0,2.1,1.1,3.2,0s1.1-2.1,0-3.2s-2.1-2.1-4.3-3.2
		c-2.1-1.1-4.3-1.1-7.5-2.1c2.1,0,5.3,0,7.5,0c0,0,0,0,1.1,0s1.1,0,2.1,0c1.1,0,2.1,0,3.2,0c2.1,2.1,4.3,4.3,6.4,7.5
		c1.1,1.1,3.2,3.2,4.3,3.2c2.1,0,4.3,0,5.3,2.1c1.1,1.1,3.2,1.1,4.3,0l1.1-1.1c1.1,0,1.1-1.1,1.1-2.1c0-1.1-1.1-1.1-1.1-2.1l1.1-1.1
		c-1.1-1.1-2.1-1.1-3.2-1.1c0-1.1,0-1.1,1.1-1.1s1.1,1.1,2.1,1.1l0,0c-1.1-2.1-1.1-4.3-2.1-6.4c1.1-1.1,1.1-1.1,0-2.1v-1.1
		c0-1.1,0-2.1,0-3.2c1.1,0,2.1,0,2.1,0c1.1-1.1,1.1-2.1,1.1-3.2s1.1-1.1,1.1-2.1h-1.1h1.1c0,0,0-1.1-1.1-1.1l1.1-1.1
		c0-1.1,1.1-1.1,1.1-2.1s1.1-2.1,1.1-4.3v-1.1c-1.1,0-2.1,0-3.2,1.1s-2.1,1.1-3.2,1.1h-1.1c-1.1,0-2.1,0-3.2,0c0-1.1,0-2.1,1.1-4.3
		c-1.1-1.1-1.1-1.1-2.1-2.1c1.1,0,1.1,0,2.1,0c1.1-1.1,3.2-2.1,2.1-4.3l1.1,1.1l3.2-3.2l-1.1-1.1c0-1.1,0-1.1-1.1-2.1
		c-1.1-1.1-1.1-1.1,0-2.1c0-1.1,1.1-2.1,1.1-3.2c1.1-1.1,1.1-4.3-1.1-4.3c-1.1,0-2.1-1.1-2.1-2.1c0-1.1-1.1-2.1-1.1-2.1l-1.1-1.1
		c-2.1,0-3.2,1.1-2.1,3.2c-3.2,0-4.3,3.2-5.3,4.3c-1.1,1.1-2.1,2.1-4.3,1.1c-1.1-1.1-2.1,0-2.1,1.1c0,2.1-1.1,4.3-2.1,6.4
		c-1.1,1.1-2.1,2.1-2.1,3.2l1.1,1.1c0,0,0,0-1.1,0h-1.1c-2.1,1.1-3.2,0-5.3,0c-1.1,0-1.1,0-2.1,0l0,0c-2.1,2.1-3.2,4.3-5.3,7.5h-1.1
		c0,0-1.1,1.1-1.1,2.1c-1.1-1.1-1.1-2.1-2.1-1.1c0-1.1-1.1-1.1-1.1-2.1c3.2-2.1,3.2-3.2,3.2-4.3l1.1-1.1c0-1.1,0-2.1,1.1-2.1
		c2.1-2.1,3.2-3.2,5.3-5.3c-1.1-1.1-1.1-2.1-2.1-3.2c-1.1-1.1-2.1-2.1-2.1-2.1c0-2.1-1.1-3.2-1.1-4.3v-1.1c0-4.3,0-7.5-4.3-9.6
		c1.1-1.1,2.1-3.2,3.2-4.3s1.1-2.1,0-3.2c0,0-1.1-2.1,0-2.1c2.1-2.1,4.3-3.2,6.4-4.3c1.1-1.1,2.1-1.1,3.2-2.1c2.1,1.1,5.3,0,7.5-1.1
		c1.1,1.1,2.1,1.1,3.2,1.1s1.1-1.1,2.1-2.1c0,1.1,1.1,1.1,2.1,0c1.1,0,1.1-1.1,2.1,0c0,1.1,2.1,1.1,2.1,1.1c2.1,0,3.2-1.1,5.3-1.1
		c-1.1-2.1-3.2-4.3-2.1-7.5c0,1.1,1.1,3.2,1.1,4.3c0,0,0,1.1,1.1,1.1c1.1,1.1,5.3,0,5.3,0v-1.1v-1.1h1.1l1.1,1.1
		c-2.1,2.1,1.1,2.1,1.1,3.2c0-1.1,1.1-1.1,1.1-2.1c0,1.1,0,2.1,0,3.2c2.1,0,4.3,0,6.4,0c1.1,0,1.1-1.1,2.1-2.1
		c1.1-1.1,1.1-3.2,2.1-4.3c2.1,1.1,3.2,2.1,3.2-1.1h1.1c-1.1-1.1-1.1-3.2,0-4.3v-1.1c-1.1-1.1-2.1-3.2-3.2-4.3
		c-1.1,1.1-3.2,2.1-2.1,4.3c-1.1,0-1.1,1.1-2.1,1.1c-1.1,0-1.1-1.1-2.1-1.1c-2.1,1.1-3.2,1.1-5.3,2.1c-1.1,1.1-2.1,1.1-3.2,0
		c0-1.1,1.1-2.1,1.1-3.2s1.1-2.1,3.2-1.1l0,0c1.1-1.1,1.1-3.2,2.1-4.3c0-1.1,0-1.1-1.1-1.1s-1.1,1.1-2.1,1.1c-2.1,0-2.1,1.1-3.2,1.1
		c1.1-2.1,2.1-3.2,2.1-4.3s0-1.1,1.1-1.1v-1.1c0-1.1-1.1-2.1-1.1-2.1c1.1,0,2.1-1.1,3.2-1.1c0,0,0,0,1.1,0c0-1.1,0-3.2,1.1-4.3
		c0-1.1,1.1-2.1,2.1-3.2v-1.1c0-1.1,1.1-2.1,1.1-2.1l0,0l0,0c0-1.1,0-1.1,1.1-2.1l0,0c-1.1,1.1-2.1,1.1-4.3,2.1
		c-1.1-1.1-3.2,0-4.3,3.2h-1.1c-1.1,0-2.1,1.1-2.1,3.2s-1.1,4.3,1.1,5.3c-1.1,0-2.1,1.1-4.3,2.1c1.1,0,1.1,1.1,2.1,1.1
		c-1.1,2.1-4.3,2.1-6.4,0c-1.1,1.1-2.1,2.1-3.2,3.2c-1.1-3.2,2.1-3.2,3.2-4.3h-1.1c1.1-2.1,0-3.2-2.1-4.3c0,1.1-1.1,2.1-1.1,3.2
		l1.1,1.1c0,0-1.1,0-2.1,1.1c0-2.1,0-3.2,0-4.3l-1.1,1.1c-1.1-1.1-3.2-3.2-4.3-4.3c-2.1-4.3-3.2-4.3-2.1-6.4c0-1.1,0-2.1-1.1-3.2
		c-1.1,0-1.1-3.2,0-4.3c2.1-3.2,1.1-3.2-1.1-4.3c0,0-1.1,0-1.1-1.1c-1.1,0-2.1,0-3.2,0c0,3.2,0,3.2,2.1,2.1c0,1.1,1.1,1.1,1.1,1.1
		c1.1,0,2.1,0,2.1,0l0,0c-1.1,1.1-2.1,1.1-4.3,0c-1.1-1.1-3.2,0-3.2,1.1s-1.1,2.1-1.1,2.1s-1.1,0-2.1,0c0-1.1,0-1.1,0-1.1
		c1.1,0,2.1,0,1.1-1.1c0-1.1,0-1.1,0-2.1v-1.1c0-1.1,0-2.1-1.1-3.2c-4.3-1.1-6.4-4.3-7.5-7.5c2.1-1.1,2.1,0,4.3,1.1
		c0-2.1,1.1-3.2,1.1-4.3l-1.1-1.1c-1.1,0-1.1-1.1-1.1-1.1c-1.1-3.2-3.2-6.4-3.2-10.7c0-1.1-1.1-2.1-2.1-3.2c0,0-1.1,0-2.1,0
		s-1.1,0-2.1-1.1c1.1-1.1,2.1-2.1,3.2-4.3c-2.1,0-3.2,1.1-4.3,1.1h-1.1c0,0-1.1-1.1,0-1.1c0-1.1,1.1-3.2,2.1-4.3
		c0-1.1,1.1-2.1,1.1-3.2c0,0,0,0-1.1,0c0,1.1,0,1.1-1.1,2.1c-1.1,0-2.1,1.1-3.2-1.1c0,0-1.1-1.1-2.1-1.1c3.2,0,3.2,0,3.2-1.1
		c-3.2-1.1-6.4-1.1-8.5-2.1c-17.1,7.5-32,16-46.9,26.7l0,0c0,2.1,0,3.2,0,5.3c0,0,1.1,0,1.1,1.1c0,0,0-1.1,1.1-1.1c0,0,0-1.1,0-2.1
		h1.1c0,1.1,0,3.2,0,4.3l0,0c1.1-1.1,1.1-2.1,2.1-3.2c0,1.1,0,1.1-1.1,2.1c0,1.1-1.1,1.1-1.1,2.1c0,2.1,0,3.2-1.1,4.3
		c0,0,0,1.1-1.1,1.1c0,1.1-1.1,2.1-1.1,3.2V64c-1.1,0-1.1,0-2.1,1.1l1.1,1.1c0,0,0,1.1,0,2.1c0,0,0,1.1,1.1,1.1c0,0-1.1,0-2.1,0
		c1.1,0,1.1,1.1,2.1,1.1c-2.1,3.2-3.2,4.3-3.2,4.3s0,1.1-1.1,1.1c0,2.1,0,4.3-1.1,6.4c0,0,0,0,0,1.1s-1.1,4.3-1.1,4.3
		c-2.1,1.1-1.1,1.1,0,2.1c0,0,0,1.1,0,2.1l0,0c-2.1-2.1-2.1-3.2-3.2-5.3l0,0v1.1c-1.1,0-1.1,1.1-1.1,1.1c0,1.1,1.1,2.1,0,4.3
		c0,1.1,0,3.2,0,5.3c-1.1,0-4.3,5.3-4.3,6.4c-1.1,0-1.1,0-2.1,1.1c-2.1,1.1-3.2,2.1-5.3,4.3c-1.1,1.1-2.1,2.1-3.2,3.2
		c-1.1,1.1-2.1,2.1-3.2,3.2l-1.1,1.1c-1.1,1.1-1.1,2.1-1.1,2.1c-1.1,2.1-1.1,3.2,0,4.3l-1.1,1.1c0,1.1-1.1,3.2-1.1,4.3s0,1.1,0,2.1
		c-1.1,1.1,0,2.1,0,3.2c0,2.1,1.1,4.3,0,5.3c0,2.1-2.1,4.3-2.1,6.4c-1.1,1.1-1.1,3.2-1.1,4.3s0,2.1,0,2.1c0,1.1-1.1,1.1-1.1,1.1
		l-1.1-1.1c0,1.1,0,3.2,0,4.3c1.1,2.1,0,3.2-1.1,4.3l-1.1,1.1c0,2.1,0,4.3,0,6.4c1.1,0,2.1-1.1,2.1-2.1s0-2.1,0-2.1
		c2.1-3.2,2.1-6.4,3.2-9.6v-1.1c0-3.2,1.1-5.3,3.2-7.5c0,2.1,2.1,3.2,0,5.3c-1.1,1.1-1.1,3.2-2.1,4.3v1.1c0,2.1,0,4.3,0,6.4
		c0,1.1,0,2.1-1.1,2.1c0,0,0,1.1,0,2.1v1.1c0,2.1-1.1,4.3-1.1,6.4s-1.1,4.3-3.2,5.3c-1.1,1.1-2.1,1.1-1.1,2.1c0,2.1,0,5.3,2.1,7.5
		v1.1c0,1.1,1.1,3.2,1.1,4.3s1.1,3.2,1.1,4.3c2.1,1.1,3.2,3.2,4.3,3.2c2.1,1.1,3.2,2.1,3.2,5.3c0,5.3,2.1,8.5,4.3,11.7
		c0,1.1,0,1.1-1.1,2.1c0,2.1,0,3.2-1.1,4.3v2.1c1.1,1.1,1.1,2.1,1.1,3.2s0,2.1,1.1,3.2c0,1.1,1.1,1.1,1.1,2.1c0,1.1,0,1.1,0,2.1h1.1
		c0-2.1,0-2.1,4.3-1.1c0,1.1,0,2.1,0,2.1c-1.1,1.1-2.1,3.2-2.1,4.3c-1.1,1.1-3.2,2.1-3.2,4.3c-1.1,0-2.1,0-3.2-1.1l0,0
		c-2.1,1.1-5.3,0-8.5,1.1l0,0c-1.1,1.1-2.1,1.1-2.1,2.1l1.1,1.1c-1.1,1.1-1.1,1.1-3.2,0c-1.1,0-3.2,2.1-3.2,3.2
		c0,3.2-1.1,6.4-2.1,9.6c-1.1,2.1-1.1,3.2-2.1,5.3c0,1.1-1.1,2.1-2.1,3.2v1.1c0,3.2,0,5.3,1.1,8.5c1.1,3.2,2.1,6.4-1.1,8.5
		c-3.2,3.2-7.5,6.4-10.7,8.5c-1.1,1.1-2.1,2.1-4.3,2.1c-4.3,2.1-7.5,4.3-10.7,7.5c0,0,0,1.1-1.1,1.1c-3.2,1.1-6.4,3.2-9.6,4.3
		c-2.1,1.1-5.3,2.1-6.4,4.3l-1.1,1.1c-1.1,0-1.1,1.1-2.1,1.1c2.1,6.4,4.3,13.9,6.4,20.3C18.1,347.7,18.1,347.7,19.2,347.7z"/>
	<path class="st1" d="M506.7,205.9L506.7,205.9c-3.2,2.1-3.2,2.1-6.4,1.1c0,0-1.1,0-1.1-1.1c-2.1-1.1-2.1-1.1-3.2,1.1
		c-3.2,0-3.2-2.1-4.3-4.3c0,2.1-1.1,3.2-1.1,4.3s-1.1,3.2-1.1,4.3c-1.1-1.1-1.1-1.1-1.1-1.1c-1.1,0-2.1-1.1-2.1-3.2
		c0-1.1-1.1-1.1-1.1-2.1c-1.1-1.1,0-2.1,0-2.1c1.1-1.1,1.1-2.1,1.1-3.2v-1.1c1.1-2.1,0-3.2-2.1-5.3c-1.1-1.1-3.2-2.1-4.3-1.1
		c-1.1-1.1-3.2-2.1-4.3-2.1c-1.1-1.1-2.1,0-2.1,1.1s0,2.1,0,2.1c0,1.1,0,2.1-1.1,2.1c-3.2,1.1-5.3,0-7.5-1.1
		c-1.1-1.1-2.1-1.1-1.1-3.2c-5.3-2.1-8.5-2.1-11.7,0c1.1,0,1.1,1.1,2.1,1.1c-1.1,0-1.1,1.1-2.1,1.1c0-1.1,0-2.1,0-3.2
		s-1.1-2.1-1.1-2.1c0,1.1-1.1,2.1-1.1,2.1c-1.1,0-2.1,0-3.2-2.1c-1.1,0-2.1,0-2.1-1.1c-1.1,1.1-1.1,1.1-1.1,3.2
		c2.1-1.1,2.1-1.1,2.1,0c-1.1,0-2.1,1.1-3.2,1.1c0,1.1-3.2,2.1-6.4,2.1c1.1-1.1,2.1-2.1,3.2-3.2c1.1,0,2.1,0,2.1-1.1
		s1.1-2.1,2.1-2.1c1.1-2.1,2.1-4.3,4.3-4.3c0,0,0,0,1.1,0c1.1-1.1,2.1-2.1,2.1-3.2c1.1-1.1,1.1-2.1,1.1-3.2s-1.1-2.1,0-4.3v-1.1
		c0-1.1-1.1-2.1-1.1-2.1s0,0-1.1,1.1c0-1.1,0-2.1-1.1-2.1c-2.1-2.1-3.2-4.3-6.4-3.2h-1.1c-1.1,0-2.1,0-2.1,1.1
		c-1.1,1.1-2.1,2.1-3.2,1.1c1.1-1.1,1.1-1.1,2.1-2.1c1.1-2.1,1.1-2.1-1.1-3.2c-1.1,0-1.1,0-2.1-1.1l0,0h-1.1c0-1.1,1.1-1.1,1.1-2.1
		c1.1-1.1,1.1-2.1,0-3.2c-1.1,0-1.1-1.1-2.1-1.1c-1.1-1.1-3.2,0-3.2,1.1c-1.1,1.1-2.1,3.2-3.2,4.3c0,1.1-1.1,2.1-1.1,3.2
		s0,1.1,0,2.1c-2.1,0-3.2,0-5.3,1.1c1.1,1.1,2.1,2.1,1.1,4.3c-1.1-1.1-1.1-1.1-2.1-2.1c-3.2,1.1-3.2,2.1-4.3,3.2
		c-1.1,0-1.1,1.1-2.1,1.1c0,0-1.1,0-1.1-1.1c1.1-1.1,0-1.1-1.1-1.1s-2.1,0-4.3,0c-1.1,0-1.1,0-2.1,0l1.1,1.1c-1.1,0-1.1,0-1.1,1.1
		c-2.1,1.1-4.3,1.1-5.3,2.1c-1.1,0-3.2,1.1-3.2,2.1c-1.1,1.1-2.1,2.1-3.2,1.1l1.1,1.1c0,1.1-1.1,2.1-1.1,3.2c-1.1,0-1.1-1.1-2.1-1.1
		c-1.1,2.1,1.1,1.1,1.1,2.1l-1.1,1.1l0,0c0,1.1,1.1,1.1,1.1,2.1c0,1.1-1.1,2.1-2.1,2.1c-3.2,0-6.4,1.1-9.6,2.1
		c-2.1,0-3.2,3.2-2.1,4.3c0,1.1,1.1,1.1,1.1,2.1c0,1.1,0,2.1,2.1,3.2c1.1,1.1,3.2,2.1,4.3,3.2v1.1c-1.1,2.1,0,4.3,0,6.4
		c0,1.1,0,2.1-1.1,2.1v1.1c-1.1,0-2.1-1.1-1.1-2.1c0-2.1-1.1-4.3,1.1-6.4c0,0,0-1.1,1.1-2.1H384c-2.1,0-3.2,0-4.3-2.1
		s-3.2-2.1-6.4-2.1c-1.1,0-1.1,0-1.1,1.1l1.1,1.1c-2.1,2.1-2.1,2.1-3.2,0c-1.1,1.1,0,2.1,0,2.1c1.1,1.1,2.1,2.1,3.2,2.1
		c0,1.1,0,1.1,1.1,2.1c-2.1-1.1-4.3-2.1-6.4-2.1c0-1.1,0-2.1,0-3.2s0-2.1,0-3.2c1.1-2.1,0-4.3-1.1-5.3v1.1c1.1,2.1,0,4.3-2.1,5.3
		l0,0c-1.1,1.1-1.1,2.1-1.1,4.3c1.1,1.1,1.1,2.1,1.1,3.2s1.1,1.1,0,2.1c-1.1,3.2-1.1,5.3,0,9.6c1.1,0,2.1,0,3.2,0s2.1,0,3.2,0
		c2.1,1.1,2.1,3.2,3.2,4.3c0,1.1-1.1,2.1-1.1,2.1s1.1,1.1,2.1,2.1c-2.1,0-2.1,0-2.1-1.1c1.1-2.1,0-4.3-2.1-6.4c-1.1,0-1.1,0-2.1,1.1
		c-3.2,1.1-3.2,1.1-2.1,4.3c0,1.1,0,2.1,0,3.2s-1.1,2.1-1.1,3.2c0,0,0,1.1-1.1,1.1c-1.1,1.1-2.1,2.1-3.2,3.2c-1.1,0-2.1,0-2.1,0
		c-1.1,0-2.1-1.1-1.1-2.1c1.1,1.1,2.1,2.1,3.2,1.1c0-1.1,0-3.2,0-3.2c2.1,0,1.1-2.1,2.1-3.2c1.1-2.1,1.1-4.3,1.1-5.3v-1.1
		c-3.2-3.2,0-6.4-1.1-9.6l0,0c0-2.1,1.1-4.3-1.1-6.4c-1.1-1.1-1.1-2.1,0-3.2c1.1-2.1,1.1-4.3,1.1-5.3c0,0,0-1.1-1.1-1.1
		c-2.1,0-4.3-1.1-6.4-1.1c0,1.1-1.1,2.1-1.1,3.2c0,3.2-1.1,6.4-4.3,7.5l-1.1,1.1c0,1.1,0,1.1,0,2.1c0,0,1.1,0,1.1,1.1
		c0,2.1-1.1,4.3-1.1,7.5c2.1,0,3.2,1.1,3.2,2.1c0,1.1,1.1,1.1,1.1,2.1c0,1.1-1.1,2.1-1.1,3.2c-1.1-1.1-2.1-3.2-3.2-3.2
		c-3.2-2.1-6.4-5.3-10.7-5.3c-1.1,0-2.1,0-3.2,1.1c0,0,0,1.1,0,2.1s1.1,2.1,0,3.2c-1.1,0-2.1,1.1-1.1,2.1c0,0-1.1,0-1.1,1.1v-1.1
		c0-1.1,0-2.1-1.1-3.2c-1.1,1.1-2.1,2.1-3.2,2.1c-1.1,0-1.1,1.1-2.1,1.1c-2.1,0-4.3,0-5.3,3.2c-1.1-1.1-1.1-2.1-1.1-2.1
		c0-1.1,0-2.1,0-2.1l0,0c0,1.1-1.1,1.1-1.1,2.1c-2.1-1.1-1.1,1.1-1.1,1.1c-1.1,0-2.1,0-2.1,1.1c-2.1,1.1-4.3,2.1-5.3,3.2
		c-1.1,1.1-2.1,1.1-2.1,3.2s-1.1,2.1-2.1,3.2c-1.1,0-2.1-1.1-2.1-1.1c-2.1-2.1-2.1-4.3,1.1-5.3l0,0c0-4.3-2.1-4.3-7.5-4.3
		c2.1,1.1,2.1,3.2,2.1,4.3s0,1.1,0,2.1v1.1c1.1,1.1,1.1,2.1,1.1,3.2s0,2.1-1.1,3.2l-1.1-1.1c-1.1-1.1-3.2-1.1-4.3,0
		s-2.1,2.1-3.2,2.1c-2.1,1.1-2.1,2.1-1.1,3.2c0,1.1,1.1,2.1,1.1,3.2l0,0c-3.2-1.1-5.3-2.1-8.5-3.2c0,1.1,0,2.1,0,2.1
		c0,1.1,1.1,1.1,2.1,2.1l0,0c0,1.1,0,1.1,1.1,2.1c-1.1,1.1-3.2,0-4.3-1.1s-2.1-1.1-2.1-2.1s-1.1-2.1-1.1-3.2v-1.1
		c0-1.1,1.1-2.1,0-3.2c-2.1-2.1-3.2-3.2-5.3-5.3l0,0c0,0,1.1,0,1.1,1.1c2.1,1.1,3.2,2.1,5.3,3.2s4.3,1.1,6.4,2.1c1.1,0,3.2,0,4.3,0
		c2.1-1.1,3.2-2.1,3.2-4.3c0-3.2-1.1-5.3-5.3-6.4c-1.1,0-1.1-1.1-2.1-1.1c-1.1-1.1-2.1-2.1-4.3-4.3l-1.1-1.1c-2.1,0-5.3-1.1-6.4-2.1
		c0,0,0-1.1-1.1-1.1l0,0c0,0,1.1,0,1.1,1.1c0-1.1,0-1.1-2.1-2.1c0,0,0,1.1-1.1,1.1h-3.2c-1.1-1.1-1.1-2.1-2.1-3.2
		c2.1,1.1,3.2,0,4.3-2.1c-1.1-1.1-3.2-2.1-4.3-3.2c0,1.1-1.1,2.1-1.1,2.1l0,0c0-1.1,0-2.1,0-3.2c0,0-1.1,0-1.1-1.1
		c-1.1,2.1-1.1,3.2-2.1,4.3l0,0c0-1.1,0-2.1,0-3.2c-1.1,2.1-2.1,3.2-3.2,5.3l0,0c1.1-1.1,1.1-3.2,2.1-4.3c-1.1,0-1.1-1.1-2.1-1.1
		l-1.1,1.1c1.1,1.1,0,2.1-1.1,2.1c-1.1,1.1-1.1,2.1-2.1,2.1s-2.1-1.1-3.2-1.1c0,1.1,1.1,2.1,1.1,2.1c-2.1-1.1-3.2,0-3.2,2.1
		c0-1.1,0-2.1,0-2.1l-1.1,1.1c-2.1-1.1-1.1,1.1-2.1,1.1h-1.1c0,1.1,0,1.1,0,2.1c-1.1-1.1-2.1-1.1-3.2-2.1c0,1.1-1.1,2.1-1.1,3.2
		c1.1,0,1.1,0,2.1,0c1.1,2.1-1.1,2.1-2.1,3.2c1.1,0,1.1,0,2.1,1.1l0,0h-2.1v2.1c0-1.1-1.1-1.1-1.1-1.1c0,1.1,0,2.1-1.1,2.1
		c0,0,0,1.1-1.1,1.1s-1.1,1.1-2.1,2.1c0,0,0,1.1-1.1,1.1c-2.1,1.1-1.1,4.3-3.2,5.3c-1.1,1.1-1.1,1.1-1.1,2.1v1.1v1.1
		c-1.1,0-2.1,1.1-1.1,3.2c-2.1,0-2.1,2.1-3.2,4.3c0,1.1,1.1,1.1,1.1,2.1c-1.1,0-1.1-1.1-2.1,0c-1.1,0-2.1,1.1-3.2,2.1
		c-1.1,1.1-2.1,1.1-2.1,2.1c0,0,1.1,0,1.1,1.1c-1.1,1.1-2.1,1.1-2.1,2.1c-1.1,0-1.1,1.1-2.1,2.1c0,0,1.1,0,1.1,1.1
		c-1.1,0-2.1,2.1-1.1,2.1c0,0,0,1.1,1.1,1.1s3.2,0,4.3,0c0,0,0,1.1-1.1,1.1c-1.1-1.1-2.1,0-3.2,0s-1.1,1.1,0,2.1v2.1
		c2.1-2.1,2.1-2.1,3.2-2.1c-1.1,1.1-2.1,2.1-2.1,3.2c-1.1,0-1.1,1.1-2.1,1.1l0,0c1.1,0,1.1,0,2.1,0c0,1.1-1.1,1.1-1.1,2.1v1.1
		c1.1,1.1,2.1,2.1,3.2,3.2c0,0,1.1,0,2.1-1.1c2.1-1.1,2.1-3.2,4.3-3.2v-1.1c0-1.1,0-1.1,0-2.1c0,1.1,1.1,3.2,1.1,4.3
		c1.1,3.2,1.1,5.3,3.2,8.5c1.1,1.1,0,3.2-1.1,3.2s-1.1,1.1-2.1,1.1c1.1,1.1,2.1,2.1,2.1,3.2c0-1.1,1.1-2.1,1.1-3.2
		c1.1,2.1,2.1,1.1,3.2,1.1c1.1-2.1,1.1-2.1,3.2-3.2h1.1c1.1-3.2,1.1-5.3,2.1-8.5c0-1.1,1.1-3.2,2.1-3.2c1.1,0,1.1-1.1,1.1-1.1
		c-1.1,0-2.1,0-3.2,0c0,0,0,0,0-1.1c1.1,0,2.1,1.1,3.2,0c1.1,0,2.1-1.1,2.1-2.1c0-2.1-2.1-3.2-4.3-2.1c0-3.2,1.1-5.3,1.1-8.5l0,0
		c1.1-2.1,2.1-4.3,5.3-5.3c1.1-1.1,2.1-2.1,3.2-3.2c0,0,0-1.1,0-2.1c-1.1-2.1,0-3.2,1.1-4.3c0-1.1,1.1-1.1,2.1-2.1
		c1.1,0,2.1,0,3.2,0c0,0,0,0,0-1.1l1.1,1.1c0,1.1,1.1,2.1,1.1,3.2l-1.1,1.1l0,0c-1.1,2.1-2.1,4.3-4.3,6.4c0,1.1-1.1,1.1-2.1,1.1
		c-1.1,1.1-2.1,2.1-2.1,4.3s1.1,4.3,0,6.4c0,1.1,0,2.1,1.1,2.1c1.1,1.1,2.1,1.1,3.2,2.1h1.1c1.1,0,2.1-1.1,3.2-1.1
		c2.1-1.1,5.3-1.1,7.5-2.1l0,0c-1.1,1.1,0,2.1,1.1,2.1s1.1,0,2.1,1.1c-2.1,1.1-3.2,1.1-5.3,2.1c-2.1,0-4.3-1.1-7.5,0
		c-1.1,1.1-2.1,1.1-1.1,2.1c0,1.1,0,3.2,2.1,2.1c0,2.1,0,4.3-1.1,5.3c-2.1,0-2.1-2.1-4.3-3.2c-1.1,0-1.1,1.1-2.1,1.1
		c-1.1,2.1-2.1,4.3-1.1,6.4c0,1.1,0,2.1,0,4.3c-2.1-1.1-2.1,0-3.2,1.1c0,1.1-1.1,1.1-2.1,1.1c0,0,0-1.1-1.1-2.1
		c-2.1,0-8.5,2.1-9.6,4.3c-1.1-1.1-1.1-1.1-2.1-1.1c0-1.1,0-1.1,0-2.1c-2.1,1.1-4.3,2.1-6.4,3.2c0-1.1,0-1.1,0-1.1
		c-1.1,0-2.1,0-2.1-1.1c-1.1-1.1-1.1-2.1-1.1-4.3c1.1,1.1,1.1,1.1,1.1,1.1h1.1c0-1.1,0-1.1,0-2.1c-1.1,0-1.1,0-2.1,1.1
		c0-1.1,1.1-1.1,1.1-2.1s1.1-1.1,2.1-2.1c-2.1,0-2.1-1.1-2.1-2.1c0-1.1,0-2.1,0-3.2c-1.1,1.1-2.1,2.1-3.2,2.1
		c-2.1,2.1-3.2,4.3-1.1,7.5v1.1c0,1.1,0,3.2,0,4.3l0,0c0,1.1-1.1,1.1-1.1,2.1c-1.1-1.1-2.1-1.1-3.2,0c0,0,0,0-1.1,0
		c-2.1,0-2.1,0-3.2,2.1v1.1l0,0v-2.1l0,0c0,1.1-1.1,3.2-2.1,5.3c-1.1,0-2.1,1.1-4.3,2.1l-1.1,1.1c0,1.1-1.1,2.1-2.1,3.2
		c0,0-1.1,0-1.1,1.1c-1.1,1.1-2.1,1.1-3.2,0h-1.1c0,1.1,0,2.1,1.1,3.2c-1.1,0-2.1,0-3.2,0c-2.1-1.1-3.2,0-4.3,0
		c0,2.1,1.1,2.1,2.1,2.1c2.1,0,3.2,1.1,3.2,3.2c0,0,0,1.1,1.1,1.1c2.1,1.1,1.1,2.1,1.1,3.2s0,2.1,0,2.1c0,3.2-1.1,4.3-4.3,3.2
		c-3.2,0-7.5-1.1-10.7-1.1c-1.1,0-2.1,1.1-3.2,2.1v1.1v1.1c1.1,3.2,0,6.4-1.1,9.6c0,1.1,0,2.1,1.1,2.1c0,1.1,0,2.1,0,3.2h1.1
		c2.1,0,4.3-1.1,5.3,2.1c0,1.1,1.1,1.1,2.1,0c1.1-1.1,2.1-1.1,4.3-1.1c3.2,1.1,4.3-2.1,5.3-3.2c1.1,0,1.1-2.1,2.1-3.2
		c-1.1-1.1-1.1-2.1,0-3.2c1.1-2.1,3.2-4.3,5.3-5.3c1.1-1.1,2.1-1.1,1.1-3.2c0-1.1,0-2.1,1.1-2.1s2.1,0,4.3,0c1.1,0,1.1,0,2.1,0
		c2.1-1.1,3.2-2.1,4.3-3.2c1.1-1.1,1.1-1.1,2.1,0c1.1,0,2.1,1.1,2.1,2.1c0,1.1,1.1,2.1,2.1,3.2c0,0,1.1,1.1,2.1,1.1
		c2.1,1.1,3.2,2.1,5.3,4.3c1.1,1.1,2.1,1.1,2.1,2.1c0,1.1,1.1,2.1,1.1,3.2c-1.1,1.1-3.2,2.1-5.3,2.1c-1.1,0-1.1,0-2.1,0
		c0,0,0,1.1,1.1,1.1c1.1,1.1,2.1,1.1,3.2,2.1c1.1,0,1.1,0,1.1-1.1s0-2.1,0-3.2l0,0h1.1c0-1.1,1.1-2.1,1.1-2.1c1.1-1.1,1.1-1.1,0-2.1
		c0,0,0-1.1,0-2.1h1.1c1.1,0,1.1,1.1,2.1,1.1c-1.1-3.2-3.2-3.2-5.3-4.3v-1.1c-3.2,0-4.3-1.1-5.3-3.2c0-1.1-1.1-2.1-2.1-3.2
		c-2.1-1.1-1.1-2.1-1.1-4.3c0,0,1.1-1.1,2.1-1.1c0,1.1,1.1,2.1,1.1,3.2c1.1-1.1,1.1-1.1,1.1-2.1c1.1,1.1,1.1,2.1,2.1,3.2
		c0,1.1,1.1,2.1,1.1,2.1c1.1,0,2.1,1.1,3.2,2.1c1.1,1.1,3.2,2.1,3.2,3.2c0,2.1,0,4.3,1.1,5.3c0,1.1,1.1,2.1,2.1,3.2
		c1.1,1.1,1.1,2.1,2.1,3.2c-1.1,2.1,1.1,4.3,3.2,4.3c0-1.1,0-1.1,0-2.1h1.1c0,0,0-1.1-1.1-2.1c1.1,0,1.1,1.1,2.1,1.1v-1.1h1.1
		c-1.1-2.1-2.1-3.2-3.2-3.2c0-1.1,0-2.1,0-2.1c0-1.1,0-1.1,0-2.1c1.1,0,2.1,0,2.1,1.1c0,0,0-1.1,0-2.1c2.1-2.1,3.2,0,5.3,0
		c0,1.1-1.1,3.2-1.1,4.3l0,0l1.1-1.1c0,1.1,0,1.1,0,1.1v1.1h-1.1v1.1c1.1,0,1.1,1.1,2.1,2.1c1.1,1.1,1.1,2.1,3.2,2.1
		c0,0,1.1,0,1.1,1.1c2.1,1.1,2.1,1.1,3.2-1.1l0,0c1.1,0,1.1,1.1,2.1,1.1c2.1,1.1,3.2,1.1,5.3,0h1.1c1.1,0,1.1,0,2.1,0
		c0,1.1,0,2.1,0,2.1c0,1.1,0,2.1,0,3.2c-1.1,2.1-2.1,4.3-3.2,7.5c-1.1,2.1-3.2,3.2-5.3,2.1c-1.1-1.1-2.1-1.1-3.2-1.1
		s-2.1,1.1-3.2,1.1c-1.1,0-2.1,0-2.1,0c-2.1,0-4.3-1.1-5.3-1.1c-2.1,0-3.2-1.1-5.3-2.1c0,0,0,0-1.1-1.1c-1.1,0-1.1-1.1-2.1-1.1
		c-1.1,0-3.2,0-4.3,1.1s-1.1,2.1-1.1,3.2c0,0,0,1.1-1.1,1.1s-2.1,1.1-2.1,0c-2.1,0-3.2-1.1-5.3-2.1c-1.1,0-1.1-1.1-1.1-1.1
		c-1.1-2.1-3.2-3.2-5.3-3.2c-3.2,0-5.3-2.1-7.5-3.2c1.1-1.1,2.1-1.1,2.1-2.1c1.1-1.1,1.1-2.1,1.1-2.1c-1.1-1.1-1.1-2.1,0-3.2v-1.1
		c-1.1,0-1.1,0-2.1,1.1c0-2.1-1.1-1.1-2.1-1.1c-1.1,1.1-2.1,1.1-4.3,0c-1.1,0-2.1,0-4.3,0h-1.1c-3.2-1.1-6.4,0-9.6,1.1
		s-5.3,3.2-9.6,3.2h-1.1c-1.1,0-2.1,0-2.1-1.1c-1.1-1.1-2.1-1.1-2.1,0c-1.1,2.1-2.1,4.3-4.3,5.3c-2.1,1.1-4.3,4.3-4.3,6.4
		s-1.1,3.2-2.1,4.3c-2.1,2.1-5.3,2.1-6.4,5.3c0,0,0,0-1.1,1.1c0,0,0,1.1-1.1,1.1c-1.1,3.2-3.2,5.3-4.3,8.5c0,1.1-1.1,2.1,0,3.2
		c1.1,1.1,1.1,2.1,0,3.2v1.1c0,1.1,0,3.2,0,4.3s-1.1,2.1-1.1,2.1c0,1.1-1.1,2.1-2.1,3.2c1.1,1.1,2.1,2.1,2.1,4.3
		c0,1.1,1.1,2.1,2.1,2.1h1.1c1.1,2.1,3.2,3.2,4.3,5.3c0,0,1.1,1.1,1.1,2.1c0,1.1,1.1,2.1,2.1,3.2c2.1,1.1,4.3,3.2,6.4,4.3
		s4.3,3.2,7.5,1.1c2.1-1.1,5.3-1.1,7.5,0c1.1,0,2.1,0,3.2,0c3.2-2.1,6.4-3.2,10.7-3.2c2.1,0,3.2,1.1,4.3,3.2c0,1.1,1.1,2.1,2.1,1.1
		c1.1,0,2.1,0,3.2,0c2.1,0,4.3,2.1,4.3,4.3c0,1.1,0,2.1-1.1,4.3c0,1.1-1.1,2.1-1.1,3.2c0,0,0,1.1,0,2.1c1.1,2.1,3.2,4.3,5.3,6.4
		c1.1,1.1,2.1,2.1,2.1,3.2c1.1,1.1,1.1,3.2,1.1,4.3s0,2.1,0,3.2s0,2.1,1.1,2.1c1.1,1.1,1.1,4.3,0,4.3c-2.1,2.1-3.2,5.3-3.2,7.5
		c-1.1,3.2-1.1,5.3,1.1,7.5c3.2,4.3,4.3,9.6,5.3,14.9c0,2.1,0,4.3,2.1,6.4c2.1,1.1,2.1,3.2,3.2,5.3c1.1,1.1,1.1,3.2,2.1,4.3
		c1.1,1.1,1.1,2.1,0,3.2c0,0,0,1.1,1.1,1.1c5.3,0,10.7,1.1,14.9,1.1c1.1,0,2.1,0,3.2,0c1.1-1.1,2.1-1.1,3.2-1.1
		c3.2-2.1,5.3-5.3,6.4-8.5c1.1-1.1,1.1-2.1,2.1-3.2c2.1-2.1,2.1-4.3,2.1-6.4s0-2.1,1.1-2.1s2.1-1.1,2.1-1.1c1.1,0,2.1-1.1,2.1-2.1
		c0-2.1,1.1-5.3-1.1-7.5c-1.1-1.1-1.1-2.1,1.1-3.2c1.1-1.1,2.1-2.1,3.2-2.1c1.1-1.1,1.1-2.1,2.1-2.1c2.1-1.1,4.3-2.1,5.3-4.3
		c1.1-1.1,1.1-2.1,1.1-3.2c0-2.1-1.1-4.3,0-6.4c0-1.1,0-2.1,0-2.1c-1.1-2.1-2.1-3.2-2.1-5.3c0,0,0-1.1,0-2.1c-1.1-1.1-1.1-2.1,0-3.2
		c0-1.1,1.1-2.1,1.1-3.2c1.1-4.3,4.3-5.3,7.5-8.5c2.1-2.1,4.3-3.2,6.4-5.3c3.2-3.2,6.4-6.4,7.5-10.7c0,0,0-1.1,1.1-1.1
		c2.1-2.1,2.1-4.3,2.1-7.5c0-1.1-1.1-1.1-2.1-1.1c-1.1,0-2.1,1.1-2.1,1.1c-2.1,0-3.2,1.1-5.3,1.1c-1.1,0-3.2,0-4.3,1.1
		c0,0-1.1,0-1.1-1.1c-1.1-1.1-2.1-1.1-2.1-2.1c1.1-1.1,1.1-1.1,0-2.1c-1.1-1.1-2.1-2.1-3.2-3.2c-1.1-1.1-1.1-1.1-2.1-2.1
		c-2.1-1.1-3.2-2.1-3.2-3.2s-1.1-3.2-2.1-3.2c-2.1-1.1-2.1-3.2-2.1-5.3c0-1.1-1.1-3.2-2.1-4.3c-1.1-1.1-3.2-2.1-2.1-4.3l0,0
		c-1.1-1.1-2.1-2.1-2.1-4.3c-1.1-2.1-2.1-5.3-4.3-7.5c0,0,0-1.1,0-2.1c1.1,1.1,1.1,2.1,2.1,3.2c0,1.1,1.1,1.1,2.1,1.1
		c0-1.1,1.1-1.1,1.1-2.1c0,0,1.1,1.1,1.1,2.1c1.1,2.1,3.2,5.3,4.3,7.5c0,0,0,1.1,1.1,1.1c2.1,1.1,3.2,3.2,3.2,5.3s0,3.2,2.1,4.3
		c1.1,0,1.1,2.1,2.1,2.1c1.1,1.1,1.1,2.1,2.1,3.2c1.1,1.1,1.1,3.2,2.1,4.3c1.1,2.1,1.1,4.3,1.1,6.4l1.1,1.1c1.1,0,2.1,0,3.2-1.1
		c0,0,1.1,0,1.1-1.1c1.1,0,2.1-1.1,3.2-1.1c1.1-1.1,3.2-1.1,4.3-2.1c1.1-1.1,3.2-1.1,4.3-2.1l1.1-1.1c1.1-1.1,1.1-1.1,2.1-2.1
		c2.1-1.1,4.3,0,5.3-2.1h1.1c1.1-1.1,2.1-2.1,3.2-3.2v-1.1c0-1.1,0-1.1,1.1-2.1c2.1-1.1,2.1-2.1,3.2-4.3v-1.1
		c-1.1-1.1-3.2-3.2-5.3-3.2c-1.1,0-2.1-2.1-2.1-3.2s0-1.1,0-2.1c-1.1,2.1-3.2,3.2-4.3,4.3l-1.1,1.1c-1.1,0-3.2,0-4.3,0l-1.1-1.1
		c0-1.1,0-1.1,0-2.1v-1.1l0,0c0,1.1-1.1,1.1-1.1,2.1c-1.1-1.1-1.1-2.1-1.1-3.2c0,0,0-1.1-1.1-1.1c-1.1-1.1-2.1-2.1-3.2-3.2
		c-1.1-2.1-1.1-3.2,0-5.3l0,0c1.1,0,2.1,1.1,3.2,1.1c1.1,1.1,2.1,2.1,2.1,4.3c0,0,0,1.1,1.1,1.1c1.1,1.1,3.2,2.1,4.3,2.1
		c1.1,1.1,4.3,1.1,5.3,0c1.1-1.1,2.1-1.1,2.1,0c0,2.1,2.1,2.1,3.2,2.1c1.1,0,2.1,0,3.2,0s2.1,1.1,4.3,0c3.2,0,6.4,0,9.6,0h1.1
		c1.1,1.1,3.2,3.2,4.3,4.3s2.1,1.1,3.2,1.1h1.1l0,0c-1.1,0-2.1,1.1-3.2,1.1c1.1,1.1,2.1,1.1,2.1,2.1c2.1,2.1,4.3,1.1,5.3-1.1
		c0,0,0-1.1,1.1-1.1c0,1.1,0,2.1,0,3.2s0,2.1,0,2.1c0,3.2,0,6.4,2.1,9.6c2.1,4.3,4.3,9.6,6.4,13.9c0,1.1,1.1,1.1,1.1,2.1
		c1.1,1.1,1.1,1.1,2.1,0c0-1.1,1.1-1.1,1.1-1.1s0,0,1.1-1.1c0-1.1,1.1-1.1,2.1-2.1c0-2.1,2.1-5.3,1.1-8.5c0,0,0-1.1,0-2.1l1.1-1.1
		c1.1-1.1,2.1-1.1,3.2-2.1c3.2-2.1,5.3-4.3,8.5-6.4c1.1-1.1,2.1-1.1,2.1-2.1c0-2.1,1.1-2.1,2.1-3.2c2.1,1.1,3.2,0,4.3,0
		s1.1-1.1,2.1-2.1c1.1,0,2.1,1.1,2.1,2.1c1.1,1.1,1.1,3.2,2.1,4.3c1.1,1.1,2.1,2.1,3.2,4.3c1.1,1.1,0,3.2,0,5.3
		c1.1,1.1,4.3,0,5.3-2.1c2.1,0,2.1,2.1,2.1,4.3c0,1.1,0,2.1,1.1,3.2c1.1,2.1,1.1,5.3,1.1,7.5c0,2.1,0,3.2-1.1,4.3
		c1.1,1.1,1.1,1.1,2.1,1.1c2.1,2.1,3.2,4.3,3.2,6.4c0,3.2,3.2,5.3,6.4,7.5c0,0,1.1,0,2.1,0c0-1.1,0-1.1,0-2.1c0-1.1-1.1-2.1-1.1-3.2
		c0-3.2-2.1-5.3-4.3-6.4c-2.1,0-2.1-1.1-2.1-2.1c0-1.1,0-3.2-2.1-3.2c0-1.1,0-2.1,0-2.1c0-2.1,1.1-4.3,1.1-6.4l1.1-1.1
		c0,0,1.1,0,1.1,1.1v1.1c2.1,0,3.2,0,4.3,1.1c1.1,2.1,2.1,3.2,4.3,3.2c1.1,0,1.1,1.1,1.1,2.1c0,1.1,0,1.1,0,2.1l0,0
		c1.1-1.1,1.1-1.1,2.1-2.1c1.1-1.1,1.1-2.1,3.2-2.1s4.3-1.1,4.3-4.3c0-2.1,0-4.3-1.1-6.4c0-1.1-1.1-1.1-1.1-2.1
		c-2.1-2.1-3.2-3.2-5.3-5.3c0,0,0-1.1,0-2.1c1.1-2.1,2.1-4.3,5.3-5.3c1.1,0,2.1,0,3.2,0c1.1,1.1,1.1,2.1,1.1,3.2l0,0
		c0-2.1,0-2.1,2.1-3.2c1.1,0,1.1,0,2.1,0c1.1,0,2.1,0,2.1-1.1c1.1,0,1.1-1.1,2.1,0c0,0,0,0,1.1,0s2.1-1.1,3.2-1.1s1.1-1.1,2.1-1.1
		c1.1-1.1,2.1-2.1,3.2-3.2c2.1-1.1,3.2-2.1,3.2-4.3l0,0c2.1-2.1,4.3-5.3,5.3-8.5c-1.1,0-1.1-1.1-2.1-1.1c1.1,0,1.1-1.1,2.1-1.1
		l-1.1-1.1l1.1-1.1c-1.1-1.1-2.1-2.1-2.1-3.2c-1.1-2.1-1.1-4.3-3.2-4.3c1.1-1.1,1.1-1.1,1.1-2.1c1.1-1.1,2.1-1.1,2.1-1.1
		c0-1.1,2.1-1.1,3.2-2.1c0,0,1.1,0,1.1-1.1l0,0h-1.1c-2.1-1.1-3.2-1.1-4.3,0h-1.1c-1.1-1.1-1.1-1.1-2.1-2.1c0,0-1.1-1.1-1.1-2.1
		l1.1-1.1c1.1,0,1.1,0,2.1-1.1c1.1-1.1,3.2-3.2,4.3-4.3h1.1c0,0,0,1.1,0,2.1c0,1.1-1.1,1.1-1.1,2.1c1.1,1.1,1.1,1.1,0,2.1
		c1.1-1.1,2.1-1.1,3.2-2.1c1.1,0,2.1-1.1,2.1-1.1c1.1,0,2.1,1.1,3.2,1.1c0,1.1-1.1,2.1-1.1,4.3l1.1,1.1c2.1-1.1,3.2,0,3.2,2.1
		c0,0-1.1,0-1.1,1.1c3.2,2.1,0,4.3,1.1,6.4c1.1-1.1,3.2-1.1,4.3-2.1c2.1-1.1,2.1-2.1,2.1-4.3c0-2.1-2.1-4.3-3.2-6.4
		c-1.1-1.1-1.1-2.1,0-3.2c2.1-1.1,4.3-2.1,3.2-4.3c0,0,0-1.1,1.1-1.1c1.1-1.1,2.1-3.2,4.3-4.3c1.1,0,1.1,1.1,2.1,1.1
		c2.1,1.1,4.3-1.1,5.3-2.1c2.1-2.1,4.3-5.3,6.4-8.5c2.1-8.5,4.3-17.1,5.3-26.7l0,0c-1.1-1.1-2.1-1.1-3.2-1.1c0,1.1,0,1.1,0,2.1
		c-1.1,0-2.1,0-2.1,0c0-1.1,0-1.1,0-2.1c0,1.1-1.1,1.1-1.1,1.1l0,0c0-1.1,0-2.1,0-2.1c-1.1,0-2.1,0-3.2-1.1c0-1.1,0-1.1,0-1.1
		c3.2-3.2,6.4-7.5,10.7-10.7l1.1-1.1c0-1.1,1.1-1.1,1.1-2.1c0-6.4,1.1-12.8,1.1-19.2C512,238.9,509.9,221.9,506.7,205.9z"/>
</g>
<path class="st2" d="M480,345.6H32c-18.1,0-32-13.9-32-32V198.4c0-18.1,13.9-32,32-32h448c18.1,0,32,13.9,32,32v114.1
	C512,330.7,498.1,345.6,480,345.6z"/>
<g>
	<path class="st3" d="M101.3,297.6H76.8L48,214.4h23.5l16,50.1l16-50.1H128l16,50.1l16-50.1h24.5l-28.8,83.2h-24.5l-14.9-44.8
		L101.3,297.6z"/>
	<path class="st3" d="M240,297.6h-23.5l-28.8-83.2h23.5l16,50.1l16-50.1h23.5l16,50.1l16-50.1h24.5l-28.8,83.2h-24.5L256,252.8
		L240,297.6z"/>
	<path class="st3" d="M379.7,297.6h-23.5l-28.8-83.2H352l16,50.1l16-50.1h22.4l16,50.1l16-50.1h24.5l-28.8,83.2h-24.5l-14.9-44.8
		L379.7,297.6z"/>
</g>
</svg>
