<?xml version="1.0" encoding="utf-8"?>
<!-- Generator: Adobe Illustrator 25.1.0, SVG Export Plug-In . SVG Version: 6.00 Build 0)  -->
<svg version="1.1" id="Layer_1" xmlns="http://www.w3.org/2000/svg" xmlns:xlink="http://www.w3.org/1999/xlink" x="0px" y="0px"
	 viewBox="0 0 512 512" style="enable-background:new 0 0 512 512;" xml:space="preserve">
<style type="text/css">
	.st0{fill:#5FB7FF;}
	.st1{fill:#6C5FEA;}
	.st2{fill:#FFC344;}
	.st3{fill:#FFFFFF;}
	.st4{fill:#56788B;}
</style>
<g>
	<g>
		<g>
			<g>
				<path class="st0" d="M411.7,143.5v154.6c0,3.5-0.3,6.8-1,10.1c-8.7,1.6-16.7,5.4-23.3,10.8c-6.7,5.4-12,12.4-15.4,20.5
					c-1.5,3.5-2.6,7.2-3.2,11c-3.4,0.7-6.9,1-10.5,1h-190l-46,54.1c-1.4,1.7-3.5,2.6-5.7,2.6s-4.3-1-5.7-2.6l-46-54.1H53.3
					c-29.4,0-53.3-24-53.3-53.5V143.5C0,114,23.9,90,53.3,90h305C387.8,90,411.7,114,411.7,143.5L411.7,143.5z"/>
				<g>
					<path class="st1" d="M338.4,351.6c12.8,0,24.5-4.5,33.7-12.1c-1.5,3.5-2.6,7.2-3.2,11c-3.4,0.7-6.9,1-10.5,1L338.4,351.6z"/>
				</g>
			</g>
			<path class="st2" d="M253.6,479.7c0,17.8-14.5,32.3-32.3,32.3H32.3C14.5,512,0,497.5,0,479.7s14.5-32.3,32.3-32.3h2.8L52,424
				c1.4-2,3.7-3.1,6.1-3.1c2.4,0,4.7,1.2,6.1,3.1L81,447.3h140.4C239.1,447.3,253.6,461.8,253.6,479.7L253.6,479.7z"/>
			<path class="st0" d="M512,32.3c0,17.8-14.5,32.3-32.3,32.3h-20L442.9,88c-1.4,1.9-3.7,3.1-6.1,3.1c-2.4,0-4.7-1.2-6.1-3.1
				l-16.9-23.3H290.7c-17.8,0-32.3-14.5-32.3-32.3S272.9,0,290.7,0h189.1C497.5,0,512,14.5,512,32.3z"/>
		</g>
	</g>
	<g>
		<path class="st3" d="M149.9,188.4c4.1,0,7.5-3.4,7.5-7.5s-3.4-7.5-7.5-7.5h-40c-4.1,0-7.5,3.4-7.5,7.5v40c0,4.1,3.4,7.5,7.5,7.5
			h32.5v25h-32.5c-4.1,0-7.5,3.4-7.5,7.5s3.4,7.5,7.5,7.5h40c4.1,0,7.5-3.4,7.5-7.5v-40c0-4.1-3.4-7.5-7.5-7.5h-32.5v-25
			L149.9,188.4z"/>
		<path class="st3" d="M224.9,188.4c4.1,0,7.5-3.4,7.5-7.5s-3.4-7.5-7.5-7.5h-40c-4.1,0-7.5,3.4-7.5,7.5v80c0,4.1,3.4,7.5,7.5,7.5
			h40c4.1,0,7.5-3.4,7.5-7.5s-3.4-7.5-7.5-7.5h-32.5v-25h32.5c4.1,0,7.5-3.4,7.5-7.5s-3.4-7.5-7.5-7.5h-32.5v-25L224.9,188.4z"/>
		<path class="st3" d="M299.9,173.4h-40c-4.1,0-7.5,3.4-7.5,7.5v80c0,4.1,3.4,7.5,7.5,7.5h40c4.1,0,7.5-3.4,7.5-7.5v-80
			C307.4,176.8,304,173.4,299.9,173.4L299.9,173.4z M292.4,253.4h-25v-65h25V253.4z"/>
	</g>
	<g>
		<path class="st4" d="M512,344.7c0-3.7-2.7-6.8-6.3-7.4l-10.4-1.6l-4.9-11.9l6.1-8.5c2.2-3,1.8-7.1-0.8-9.7l-21.2-21.2
			c-2.6-2.6-6.7-2.9-9.7-0.8l-8.5,6.2l-11.9-4.9l-1.6-10.4c-0.6-3.6-3.7-6.3-7.4-6.3h-12.7l-17.2,0c-3.7,0-6.8,2.7-7.4,6.3
			l-1.6,10.4l-11.9,4.9l-8.5-6.2c-3-2.2-7.1-1.8-9.7,0.8l-21.2,21.2c-2.6,2.6-2.9,6.7-0.8,9.7l6.1,8.5l-4.9,11.9l-10.3,1.6
			c-3.6,0.6-6.3,3.7-6.3,7.4l0,30c0,3.7,2.7,6.8,6.3,7.4l10.4,1.6l4.9,11.9l-6.1,8.5c-2.2,3-1.8,7.1,0.8,9.7l21.2,21.2
			c2.6,2.6,6.7,2.9,9.7,0.8l8.5-6.2l11.9,4.9l1.6,10.3c0.6,3.6,3.7,6.3,7.4,6.3h0l15,0h15c3.7,0,6.8-2.7,7.4-6.3l1.6-10.4l11.9-4.9
			l8.5,6.2c3,2.2,7.1,1.8,9.7-0.8l21.2-21.2c2.6-2.6,2.9-6.7,0.8-9.7l-6.1-8.5l4.9-11.9l10.3-1.6c3.6-0.6,6.3-3.7,6.3-7.4L512,344.7
			z M420.5,399.8c-22.1,0-40-17.9-40-40s17.9-40,40-40c22.1,0,40,17.9,40,40S442.6,399.8,420.5,399.8z"/>
	</g>
</g>
</svg>
