<?xml version="1.0" encoding="utf-8"?>
<!-- Generator: Adobe Illustrator 25.1.0, SVG Export Plug-In . SVG Version: 6.00 Build 0)  -->
<svg version="1.1" id="Capa_1" xmlns="http://www.w3.org/2000/svg" xmlns:xlink="http://www.w3.org/1999/xlink" x="0px" y="0px"
	 viewBox="0 0 472.7 440.1" style="enable-background:new 0 0 472.7 440.1;" xml:space="preserve">
<style type="text/css">
	.st0{fill:#C4E2FF;}
	.st1{fill:#FFCEBF;}
	.st2{fill:#384949;}
	.st3{fill:#FFB09E;}
	.st4{fill:#FD544D;}
	.st5{fill:#B3DAFE;}
	.st6{fill:#FFBFB1;}
	.st7{fill:#8AC9FE;}
	.st8{fill:#C4573A;}
	.st9{fill:#A74B30;}
	.st10{fill:#537983;}
	.st11{fill:#EE6161;}
	.st12{fill:#D83131;}
	.st13{fill:#C8EFFE;}
	.st14{fill:#99E6FC;}
	.st15{fill:#3E5959;}
</style>
<g>
	<g>
		<path class="st0" d="M55.3,324.3H42.7C19.1,324.3,0,343.4,0,367v73.1h255.8V367c0-23.6-19.1-42.7-42.7-42.7H55.3z"/>
		<path class="st1" d="M88.4,242.2v64.1l39.4,26.2l39.4-26.2v-64.1H88.4z"/>
		<path class="st1" d="M222.8,149.1c-0.4,0-0.9,0-1.3,0c-7.5-45-46.6-79.2-93.7-79.2c-47.1,0-86.2,34.3-93.7,79.2
			c-0.4,0-0.9,0-1.3,0c-17.8,0-32.3,14.4-32.3,32.3s14.4,32.3,32.3,32.3c0.4,0,0.9,0,1.3,0c7.5,45,46.6,79.2,93.7,79.2
			s86.2-34.3,93.7-79.2c0.4,0,0.9,0,1.3,0c17.8,0,32.3-14.4,32.3-32.3S240.6,149.1,222.8,149.1L222.8,149.1z"/>
		<g>
			<g>
				<path class="st2" d="M81.4,204.7c-4.3,0-7.7-3.5-7.7-7.7v-17.5c0-4.3,3.5-7.7,7.7-7.7s7.7,3.5,7.7,7.7V197
					C89.1,201.3,85.7,204.7,81.4,204.7z"/>
			</g>
			<g>
				<path class="st2" d="M174.2,204.7c-4.3,0-7.7-3.5-7.7-7.7v-17.5c0-4.3,3.5-7.7,7.7-7.7s7.7,3.5,7.7,7.7V197
					C181.9,201.3,178.4,204.7,174.2,204.7z"/>
			</g>
		</g>
		<g>
			<path class="st3" d="M127.8,254.6c-15.4,0-27.9-12.5-27.9-27.9c0-4.3,3.5-7.7,7.7-7.7c4.3,0,7.7,3.5,7.7,7.7
				c0,6.9,5.6,12.5,12.5,12.5c6.9,0,12.5-5.6,12.5-12.5c0-4.3,3.5-7.7,7.7-7.7c4.3,0,7.7,3.5,7.7,7.7
				C155.7,242.1,143.2,254.6,127.8,254.6L127.8,254.6z"/>
		</g>
		<path class="st4" d="M127.8,332.5l-20.2,21.1l7.3,28.7h25.7l7.3-28.7L127.8,332.5z"/>
		<path class="st4" d="M114.9,382.2l-11.4,57.9H152l-11.4-57.9H114.9z"/>
		<g>
			<path class="st5" d="M88.4,306.3l-33.3,18.1l47,35l25.7-26.8L88.4,306.3z"/>
			<path class="st5" d="M167.1,306.3l33.3,18.1l-47,35l-25.7-26.8L167.1,306.3z"/>
			<path class="st5" d="M213.2,324.3H184c23.6,0,42.7,19.1,42.7,42.7v73.1h29.2V367C255.8,343.4,236.7,324.3,213.2,324.3z"/>
		</g>
		<path class="st6" d="M222.8,149.1c-0.4,0-0.9,0-1.3,0c-7.5-45-46.6-79.2-93.7-79.2c-5,0-9.8,0.4-14.6,1.1
			c40.4,6.2,72.4,37.9,79.1,78.1c0.4,0,0.9,0,1.3,0c17.8,0,32.3,14.4,32.3,32.3s-14.4,32.3-32.3,32.3c-0.4,0-0.9,0-1.3,0
			c-6.7,40.2-38.7,71.9-79.1,78.1c4.8,0.7,9.6,1.1,14.6,1.1c47.1,0,86.2-34.3,93.7-79.2c0.4,0,0.9,0,1.3,0
			c17.8,0,32.3-14.4,32.3-32.3S240.6,149.1,222.8,149.1L222.8,149.1z"/>
		<path class="st7" d="M167.1,306.3L154,315l17.2,9.3l-29.9,22.3l12.2,12.7l47-35L167.1,306.3z"/>
		<path class="st8" d="M192.9,38.5c-7.1-11.4-19.7-19-34.2-19H81.4c-39.4,0-71.3,31.9-71.3,71.3v58.3h135c13.8,0,26.4-5.2,35.9-13.7
			c6.7,8.4,16.9,13.7,28.5,13.7h36V91.9C245.5,62.7,222,38.9,192.9,38.5L192.9,38.5z"/>
		<g>
			<path class="st9" d="M192.9,38.5c-7.1-11.4-19.7-19-34.2-19h-29.2c14.4,0,27.1,7.6,34.2,19c29.1,0.4,52.6,24.1,52.6,53.3v57.2
				h29.2V91.9C245.5,62.7,222,38.9,192.9,38.5z"/>
		</g>
	</g>
	<g>
		<path class="st10" d="M463.4,290.8h-20.2c-2.1-7.4-5-14.5-8.7-21l14.3-14.3c3.7-3.7,3.7-9.6,0-13.3l-24-24
			c-3.7-3.7-9.6-3.7-13.3,0l-14.3,14.3c-6.6-3.7-13.6-6.6-21-8.7v-20.2c0-5.2-4.2-9.4-9.4-9.4h-34c-5.2,0-9.4,4.2-9.4,9.4v20.2
			c-7.4,2.1-14.5,5-21,8.7l-14.3-14.3c-3.7-3.7-9.6-3.7-13.3,0l-24,24c-3.7,3.7-3.7,9.6,0,13.3l14.3,14.3c-3.7,6.6-6.6,13.6-8.7,21
			h-20.2c-5.2,0-9.4,4.2-9.4,9.4v34c0,5.2,4.2,9.4,9.4,9.4h20.2c2.1,7.4,5,14.5,8.7,21l-14.3,14.3c-3.7,3.7-3.7,9.6,0,13.3l24,24
			c3.7,3.7,9.6,3.7,13.3,0l14.3-14.3c6.6,3.7,13.6,6.6,21,8.7v20.2c0,5.2,4.2,9.4,9.4,9.4h34c5.2,0,9.4-4.2,9.4-9.4v-20.2
			c7.4-2.1,14.5-5,21-8.7l14.3,14.3c3.7,3.7,9.6,3.7,13.3,0l24-24c3.7-3.7,3.7-9.6,0-13.3l-14.3-14.3c3.7-6.6,6.6-13.6,8.7-21h20.2
			c5.2,0,9.4-4.2,9.4-9.4v-34C472.7,295,468.5,290.8,463.4,290.8L463.4,290.8z"/>
		<path class="st11" d="M373,162.9v-21.3c0-1.8-1.5-3.3-3.3-3.3h-45.8c-1.8,0-3.3,1.5-3.3,3.3v21.3c0,1.8,1.5,3.3,3.3,3.3h45.8
			C371.5,166.2,373,164.7,373,162.9L373,162.9z"/>
		<path class="st12" d="M394.4,69.7L346.8,0l-47.5,69.7c-1.4,2.1,0.1,4.9,2.6,4.9h13h5.8v40c0,1.7,1.4,3.1,3.1,3.1h46.1
			c1.7,0,3.1-1.4,3.1-3.1v-40h5.8h13C394.3,74.6,395.8,71.7,394.4,69.7z"/>
		<circle class="st13" cx="349.8" cy="317.2" r="47.3"/>
		<path class="st14" d="M349.8,269.9c-4,0-7.9,0.5-11.7,1.5c20.4,5.2,35.6,23.8,35.6,45.8c0,22-15.2,40.6-35.6,45.8
			c3.7,1,7.7,1.5,11.7,1.5c26.1,0,47.3-21.2,47.3-47.3S375.8,269.9,349.8,269.9z"/>
		<g>
			<path class="st15" d="M346.9,203.5v20.2c7.4,2.1,14.5,5,21,8.7l8.6-8.6c-0.1,0-0.3-0.1-0.4-0.1v-20.2c0-5.2-4.2-9.4-9.4-9.4
				h-29.2C342.7,194.2,346.9,198.4,346.9,203.5L346.9,203.5z"/>
			<path class="st15" d="M463.4,290.8h-20.2c-2.1-7.4-5-14.5-8.7-21l14.3-14.3c3.7-3.7,3.7-9.6,0-13.3l-24-24
				c-3.7-3.7-9.6-3.7-13.3,0l-8,8l16,16c3.7,3.7,3.7,9.6,0,13.3l-14.3,14.3c3.7,6.6,6.6,13.6,8.7,21h20.2c5.2,0,9.4,4.2,9.4,9.4v34
				c0,5.2-4.2,9.4-9.4,9.4h-20.2c-2.1,7.4-5,14.5-8.7,21l14.3,14.3c3.7,3.7,3.7,9.6,0,13.3l-16,16l8,8c3.7,3.7,9.6,3.7,13.3,0l24-24
				c3.7-3.7,3.7-9.6,0-13.3l-14.3-14.3c3.7-6.6,6.6-13.6,8.7-21h20.2c5.2,0,9.4-4.2,9.4-9.4v-34C472.7,295,468.5,290.8,463.4,290.8
				L463.4,290.8z"/>
		</g>
	</g>
	<g>
		<path class="st3" d="M193,230.9h-11.7c-4.3,0-7.7-3.5-7.7-7.7s3.5-7.7,7.7-7.7H193c4.3,0,7.7,3.5,7.7,7.7S197.3,230.9,193,230.9z"
			/>
	</g>
	<g>
		<path class="st3" d="M74.2,230.9H62.5c-4.3,0-7.7-3.5-7.7-7.7s3.5-7.7,7.7-7.7h11.7c4.3,0,7.7,3.5,7.7,7.7S78.5,230.9,74.2,230.9z
			"/>
	</g>
</g>
</svg>
