<svg version="1.2" baseProfile="tiny-ps" xmlns="http://www.w3.org/2000/svg" viewBox="0 0 1498 1537" width="1498" height="1537">
	<title>Layer 1</title>
	<style>
		tspan { white-space:pre }
		.shp0 { fill: #71d0f4 } 
		.shp1 { fill: #162e6a } 
	</style>
	<g id="Layer 1">
		<g id="&lt;Group&gt;">
			<path id="&lt;Compound Path&gt;" fill-rule="evenodd" class="shp0" d="M1458.74 768.64L1497.75 939.54L1388.45 1076.58L1349.45 1247.48L1191.51 1323.53L1082.22 1460.58L906.93 1460.58L749 1536.64L591.07 1460.58L415.78 1460.58L306.49 1323.53L148.55 1247.48L109.55 1076.58L0.25 939.54L39.26 768.64L0.25 597.74L109.55 460.7L148.55 289.8L306.49 213.75L415.78 76.7L591.07 76.7L749 0.64L906.93 76.7L1082.22 76.7L1191.51 213.75L1349.45 289.8L1388.45 460.7L1497.75 597.74L1458.74 768.64ZM1319.46 768.64C1319.46 691.67 1304.36 616.95 1274.59 546.57C1245.86 478.62 1204.73 417.63 1152.38 365.26C1100.01 312.9 1039.02 271.78 971.08 243.05C900.69 213.28 825.97 198.18 749 198.18L749 198.19L749 198.18C672.03 198.18 597.31 213.28 526.92 243.05C458.98 271.78 397.98 312.9 345.62 365.26C293.26 417.62 252.14 478.62 223.41 546.56C193.64 616.95 178.54 691.67 178.54 768.64C178.54 845.61 193.64 920.33 223.41 990.71C252.14 1058.66 293.27 1119.65 345.62 1172.01C397.99 1224.37 458.98 1265.49 526.92 1294.23C597.31 1324 672.03 1339.09 749 1339.09L749 1339.1C825.97 1339.1 900.69 1324 971.08 1294.23C1039.02 1265.5 1100.02 1224.38 1152.38 1172.02C1204.74 1119.66 1245.86 1058.66 1274.59 990.72C1304.36 920.33 1319.46 845.62 1319.46 768.64Z" />
			<g id="&lt;Group&gt;">
				<path id="&lt;Path&gt;" class="shp1" d="M900.54 814.72C887.54 814.72 874.55 826.54 874.55 866.12C874.55 905.71 887.54 917.52 900.54 917.52C913.54 917.52 926.54 905.71 926.54 866.12C926.54 826.54 913.54 814.72 900.54 814.72Z" />
				<path id="&lt;Compound Path&gt;" fill-rule="evenodd" class="shp1" d="M1229.39 768.64C1229.39 1033.95 1014.31 1249.03 749 1249.03L749 1249.03L749 1249.02C483.69 1249.02 268.61 1033.95 268.61 768.64C268.61 503.33 483.69 288.25 749 288.25L749 288.25L749 288.26C1014.31 288.26 1229.39 503.33 1229.39 768.64ZM597.46 786.36C660.09 786.36 707.35 745.01 707.35 671.16C707.35 597.9 660.09 555.95 597.46 555.95C534.83 555.95 487.57 597.89 487.57 671.16C487.57 745.01 534.83 786.36 597.46 786.36ZM940.13 561.86L840.28 561.86L748 696.99L557.87 975.42L657.72 975.42L748 843.22L940.13 561.86ZM1010.43 866.12C1010.43 792.86 963.17 750.92 900.54 750.92C837.92 750.92 790.65 792.86 790.65 866.12C790.65 939.97 837.91 981.33 900.54 981.33C963.17 981.33 1010.43 939.97 1010.43 866.12Z" />
				<path id="&lt;Path&gt;" class="shp1" d="M623.45 671.16C623.45 631.57 610.46 619.76 597.46 619.76C584.46 619.76 571.46 631.57 571.46 671.16C571.46 710.74 584.46 722.56 597.46 722.56C610.46 722.56 623.45 710.74 623.45 671.16Z" />
			</g>
		</g>
	</g>
</svg>