<?xml version="1.0" encoding="utf-8"?>
<!-- Generator: Adobe Illustrator 25.1.0, SVG Export Plug-In . SVG Version: 6.00 Build 0)  -->
<svg version="1.1" id="Capa_1" xmlns="http://www.w3.org/2000/svg" xmlns:xlink="http://www.w3.org/1999/xlink" x="0px" y="0px"
	 viewBox="0 0 384.7 345.4" style="enable-background:new 0 0 384.7 345.4;" xml:space="preserve">
<style type="text/css">
	.st0{fill:#A78CD6;}
	.st1{fill:#475A99;}
	.st2{fill:#8EE2E1;}
	.st3{fill:#F5EA72;}
	.st4{fill:#EFEDFF;}
</style>
<g>
	<g>
		<path class="st0" d="M79.5,345.4H48.4c-7.6,0-13.8-6.2-13.8-13.8v-31.4h58.7v31.4C93.3,339.2,87.2,345.4,79.5,345.4z"/>
		<path class="st0" d="M305.2,345.4h31.1c7.6,0,13.8-6.2,13.8-13.8v-31.4h-58.7v31.4C291.4,339.2,297.5,345.4,305.2,345.4z"/>
	</g>
	<path class="st1" d="M350.1,307.4H34.6C15.5,307.4,0,291.9,0,272.7v-84.4c0-19.1,15.5-34.6,34.6-34.6h315.5
		c19.1,0,34.6,15.5,34.6,34.6v84.4C384.7,291.9,369.2,307.4,350.1,307.4z"/>
	<circle class="st2" cx="231" cy="230.5" r="23.5"/>
	<circle class="st3" cx="318.6" cy="230.5" r="23.5"/>
	<g>
		<path class="st4" d="M64.4,255.8c-4.1,0-7.5-3.4-7.5-7.5v-35.6c0-4.1,3.4-7.5,7.5-7.5s7.5,3.4,7.5,7.5v35.6
			C71.9,252.5,68.6,255.8,64.4,255.8z"/>
		<path class="st4" d="M108.3,255.8c-4.1,0-7.5-3.4-7.5-7.5v-35.6c0-4.1,3.4-7.5,7.5-7.5s7.5,3.4,7.5,7.5v35.6
			C115.8,252.5,112.4,255.8,108.3,255.8z"/>
		<path class="st4" d="M152.2,255.8c-4.1,0-7.5-3.4-7.5-7.5v-35.6c0-4.1,3.4-7.5,7.5-7.5s7.5,3.4,7.5,7.5v35.6
			C159.7,252.5,156.3,255.8,152.2,255.8z"/>
	</g>
	<path class="st1" d="M350.1,0H34.6C15.5,0,0,15.5,0,34.6v84.4c0,19.1,15.5,34.6,34.6,34.6h315.5c19.1,0,34.6-15.5,34.6-34.6V34.6
		C384.7,15.5,369.2,0,350.1,0z"/>
	<circle class="st3" cx="231" cy="76.8" r="23.5"/>
	<circle class="st2" cx="318.6" cy="76.8" r="23.5"/>
	<g>
		<path class="st4" d="M64.4,102.2c-4.1,0-7.5-3.4-7.5-7.5V59c0-4.1,3.4-7.5,7.5-7.5s7.5,3.4,7.5,7.5v35.6
			C71.9,98.8,68.6,102.2,64.4,102.2z"/>
		<path class="st4" d="M108.3,102.2c-4.1,0-7.5-3.4-7.5-7.5V59c0-4.1,3.4-7.5,7.5-7.5s7.5,3.4,7.5,7.5v35.6
			C115.8,98.8,112.4,102.2,108.3,102.2z"/>
		<path class="st4" d="M152.2,102.2c-4.1,0-7.5-3.4-7.5-7.5V59c0-4.1,3.4-7.5,7.5-7.5s7.5,3.4,7.5,7.5v35.6
			C159.7,98.8,156.3,102.2,152.2,102.2z"/>
	</g>
</g>
</svg>
