<?xml version="1.0" encoding="utf-8"?>
<!-- Generator: Adobe Illustrator 25.1.0, SVG Export Plug-In . SVG Version: 6.00 Build 0)  -->
<svg version="1.1" id="Layer_1" xmlns="http://www.w3.org/2000/svg" xmlns:xlink="http://www.w3.org/1999/xlink" x="0px" y="0px"
	 viewBox="0 0 300 300" style="enable-background:new 0 0 300 300;" xml:space="preserve">
<style type="text/css">
	.st0{fill:#5BB0FD;}
	.st1{opacity:0.6;fill:#5BB0FD;enable-background:new    ;}
</style>
<path class="st0" d="M184.9,148.5c-0.1-2.1-1.1-4.1-2.7-5.5c-3.3-2.9-8.3-2.6-11.2,0.7l-10.8,12.2v-40.1c0-4.4-3.6-8-8-8s-8,3.6-8,8
	v40.1l-10.9-12.2c-2.9-3.3-7.9-3.6-11.2-0.7c-1.6,1.4-2.6,3.3-2.7,5.4c-0.1,2.1,0.5,4.2,1.9,5.8l24.9,27.9c1.4,1.6,3.3,2.5,5.5,2.7
	c0.2,0,0.3,0,0.5,0c1.9,0,3.8-0.7,5.3-2c0.2-0.2,0.5-0.5,0.7-0.7l24.7-27.8C184.3,152.7,185,150.7,184.9,148.5z"/>
<g>
	<path class="st1" d="M265.1,137.2V137c-0.3-2-1.7-5.5-5.1-6.3c-2.5-0.5-18.2-1.8-25-2.3c-2.3-9.5-6.2-18.5-11.5-26.7
		c14.8-17.3,15.3-18.4,15.5-18.9c0.8-2,0.7-5.3-0.7-6.9l-0.7-0.8c-1.6-1.8-4.8-5.6-7.3-8c-2.9-2.9-8.8-8.2-9.1-8.4l-0.1-0.1
		c-1.4-1-3.1-1.6-4.9-1.7c-1.1,0-2.2,0.3-3.2,0.9c-2.1,1.4-13.4,11-19.3,16c-6.8-3.8-14-6.7-21.6-8.5c-1.8-23.8-2.3-25-2.5-25.4
		c-0.9-2-3.2-4.2-5.4-4.4l-1-0.1c-2.4-0.2-7.4-0.5-10.8-0.5c-4.1,0-12,0.5-12.3,0.5h-0.2c-2,0.3-5.5,1.7-6.3,5.1
		c-0.5,2.4-1.7,17.1-2.3,24.8c-7.6,1.9-14.8,4.7-21.6,8.6c-5.9-5-17.2-14.7-19.3-16c-0.9-0.6-2-0.9-3.2-0.9
		c-1.8,0.1-3.5,0.7-4.9,1.7L82,58.7c-0.2,0.2-6.2,5.5-9.1,8.4c-2.5,2.5-5.7,6.2-7.3,8.1L65,75.9c-1.4,1.6-1.5,4.9-0.7,6.9
		c0.2,0.5,0.7,1.6,15.5,18.9c-5.3,8.2-9.2,17.2-11.5,26.7c-6.8,0.5-22.5,1.8-25,2.3c-3.5,0.7-4.9,4.3-5.1,6.3v0.2
		c0,0.3-0.5,8.2-0.5,12.3c0,3.5,0.4,8.4,0.5,10.8c0,0.5,0.1,0.8,0.1,1c0.1,2.2,2.4,4.5,4.4,5.4c0.5,0.2,1.7,0.7,25.8,2.6
		c2.2,9,5.9,17.6,10.9,25.5c-14.5,16.9-14.9,18-15.1,18.5c-0.8,2-0.7,5.3,0.7,6.9l0.7,0.8c1.6,1.8,4.8,5.6,7.3,8.1
		c2.9,2.9,8.8,8.2,9.1,8.4l0.1,0.1c1.4,1,3.1,1.6,4.9,1.7c1.1,0,2.2-0.3,3.2-0.9c2-1.3,12.1-9.8,18.7-15.5c6.9,4,14.4,7,22.2,8.9
		c0.6,6.9,1.8,22.9,2.4,25.4c0.7,3.5,4.3,4.9,6.3,5.1h0.2c0.3,0,8.2,0.5,12.3,0.5c3.5,0,8.5-0.4,10.8-0.5l1-0.1
		c2.2-0.1,4.5-2.4,5.4-4.4c0.2-0.5,0.7-1.7,2.6-26.1c7.8-1.9,15.3-4.9,22.2-8.9c6.6,5.6,16.7,14.2,18.7,15.5c0.9,0.6,2,0.9,3.2,0.9
		c1.8-0.1,3.5-0.7,4.9-1.7l0.1-0.1c0.2-0.2,6.2-5.5,9.1-8.4c2.5-2.5,5.7-6.2,7.3-8l0.7-0.8c1.4-1.6,1.5-4.9,0.7-6.9
		c-0.2-0.5-0.6-1.6-15.1-18.5c5-7.8,8.8-16.4,11-25.5c24.2-1.9,25.4-2.4,25.8-2.6c2-0.9,4.2-3.2,4.4-5.4c0-0.2,0-0.6,0.1-1
		c0.2-2.4,0.5-7.3,0.5-10.8C265.6,145.4,265.1,137.5,265.1,137.2z M151.6,207.4c-32.3,0-58.5-26.2-58.5-58.5s26.2-58.5,58.5-58.5
		s58.5,26.2,58.5,58.5S183.9,207.4,151.6,207.4z"/>
</g>
</svg>
