<?xml version="1.0" encoding="utf-8"?>
<!-- Generator: Adobe Illustrator 25.1.0, SVG Export Plug-In . SVG Version: 6.00 Build 0)  -->
<svg version="1.1" id="Capa_1" xmlns="http://www.w3.org/2000/svg" xmlns:xlink="http://www.w3.org/1999/xlink" x="0px" y="0px"
	 viewBox="0 0 512 512" style="enable-background:new 0 0 512 512;" xml:space="preserve">
<style type="text/css">
	.st0{fill:#5F55AF;}
	.st1{fill:#453D83;}
	.st2{fill:#FFE4C2;}
	.st3{fill:#F2D1A5;}
	.st4{fill:#BEEBFA;}
	.st5{fill:#9EE2F8;}
	.st6{fill:#FF9F22;}
	.st7{fill:#FF7C48;}
</style>
<g>
	<g>
		<g>
			<g>
				<g>
					<path class="st0" d="M175,210H15c-8.3,0-15-6.7-15-15v-8.8C0,133.9,41.8,90.5,94.1,90c52.8-0.5,95.9,42.3,95.9,95v10
						C190,203.3,183.3,210,175,210z"/>
					<path class="st1" d="M95,90v120h80c8.3,0,15-6.7,15-15v-10C190,132.6,147.4,90,95,90z"/>
					<path class="st2" d="M95,115c-31.7,0-57.5-25.8-57.5-57.5S63.3,0,95,0s57.5,25.8,57.5,57.5S126.7,115,95,115z"/>
					<path class="st3" d="M95,0v115c31.7,0,57.5-25.8,57.5-57.5S126.7,0,95,0z"/>
				</g>
			</g>
		</g>
	</g>
	<g>
		<g>
			<g>
				<path class="st4" d="M497,512H337c-8.3,0-15-6.7-15-15v-8.8c0-52.3,41.8-95.7,94.1-96.2c52.8-0.5,95.9,42.3,95.9,95v10
					C512,505.3,505.3,512,497,512z"/>
				<path class="st5" d="M417,392v120h80c8.3,0,15-6.7,15-15v-10C512,434.6,469.4,392,417,392L417,392z"/>
				<path class="st2" d="M417,417c-31.7,0-57.5-25.8-57.5-57.5S385.3,302,417,302s57.5,25.8,57.5,57.5S448.7,417,417,417z"/>
				<path class="st3" d="M417,302v115c31.7,0,57.5-25.8,57.5-57.5S448.7,302,417,302z"/>
			</g>
		</g>
	</g>
	<g>
		<g>
			<path class="st6" d="M266.7,441.9l-51-43.7c-9.7-8.3-24.8-1.4-24.8,11.4v13.7h-66v-137c0-8.3-6.7-15-15-15H80
				c-8.3,0-15,6.7-15,15v182c0,8.3,6.7,15,15,15h111V497c0,12.8,15,19.7,24.8,11.4l51-43.7C273.7,458.7,273.7,447.9,266.7,441.9
				L266.7,441.9z"/>
		</g>
	</g>
	<path class="st7" d="M266.7,441.9l-51-43.7c-9.7-8.3-24.8-1.4-24.8,11.4v13.7h-66v-137c0-8.3-6.7-15-15-15H95v212h96V497
		c0,12.8,15,19.7,24.8,11.4l51-43.7C273.7,458.7,273.7,447.9,266.7,441.9L266.7,441.9z"/>
	<g>
		<g>
			<path class="st6" d="M245.3,70.1l51,43.7c9.7,8.3,24.8,1.4,24.8-11.4V88.7h66v137c0,8.3,6.7,15,15,15h30c8.3,0,15-6.7,15-15v-182
				c0-8.3-6.7-15-15-15H321V15c0-12.8-15-19.7-24.8-11.4l-51,43.7C238.3,53.3,238.3,64.1,245.3,70.1L245.3,70.1z"/>
		</g>
	</g>
	<path class="st7" d="M432,28.7h-15v212h15c8.3,0,15-6.7,15-15v-182C447,35.4,440.3,28.7,432,28.7z"/>
</g>
</svg>
