<svg version="1.2" baseProfile="tiny-ps" xmlns="http://www.w3.org/2000/svg" viewBox="0 0 1537 1491" width="1537" height="1491">
	<title>Layer 1</title>
	<style>
		tspan { white-space:pre }
		.shp0 { fill: #162e6a } 
		.shp1 { fill: #71d0f4 } 
	</style>
	<g id="Layer 1">
		<g id="&lt;Group&gt;">
			<g id="&lt;Group&gt;">
				<path id="&lt;Path&gt;" class="shp0" d="M1354.21 457.85C1354.34 457.87 1354.5 457.9 1354.56 457.91C1354.52 457.9 1354.41 457.88 1354.21 457.85Z" />
				<path id="&lt;Path&gt;" class="shp0" d="M1354.14 457.84C1354.16 457.85 1354.19 457.85 1354.21 457.85C1354.18 457.85 1354.16 457.85 1354.14 457.84Z" />
				<path id="&lt;Path&gt;" class="shp0" d="M1354.14 457.84C1350.97 457.38 1327.67 453.98 1193.78 434.45C1190.94 426.57 1187.82 418.62 1184.4 410.6C1180.28 400.93 1181.47 389.81 1187.76 381.38C1205.08 358.14 1239.99 311.3 1260.3 284.05C1269 272.39 1267.81 256.13 1257.52 245.85C1212.97 201.29 1110.34 98.66 1092.41 80.73C1091.9 81.11 1091.55 81.38 1091.3 81.56C1091.3 81.56 1091.29 81.56 1091.29 81.57C1091.29 81.57 1091.29 81.57 1091.29 81.57C1091.2 81.64 1091.12 81.69 1091.06 81.74C1091.05 81.75 1091.03 81.76 1091.02 81.77C1091.02 81.77 1091.03 81.76 1091.03 81.76C1091 81.78 1090.98 81.8 1090.96 81.82C1090.91 81.85 1090.87 81.88 1090.82 81.92C1090.83 81.91 1090.85 81.9 1090.87 81.88C1090.83 81.91 1090.81 81.92 1090.82 81.92C1087.72 84.23 1068.92 98.24 974.8 168.39C966.36 174.68 955.23 175.88 945.55 171.75C942.88 170.62 940.2 169.5 937.51 168.42C927.76 164.48 920.76 155.81 919.24 145.41C913.57 106.55 907.44 64.54 901.71 25.28C899.61 10.89 887.27 0.23 872.73 0.23L797.93 0.23C785.92 0.23 775.62 7.46 771.09 17.8C766.52 7.33 756.12 0.23 744.27 0.23L639.22 0.23C638.22 7.15 640.53 -8.74 618.04 145.4C616.53 155.77 609.53 164.48 599.8 168.4C597.11 169.49 594.41 170.61 591.72 171.76C582.05 175.88 570.95 174.7 562.51 168.42C531.03 144.95 496.98 119.57 465.17 95.86C453.51 87.17 437.26 88.35 426.97 98.63C390.88 134.72 315.8 209.81 279.75 245.85C269.47 256.14 268.29 272.39 276.98 284.05C300.71 315.89 326.11 349.97 349.59 381.47C355.84 389.86 357.01 400.9 352.91 410.52C351.76 413.21 350.63 415.93 349.53 418.66C345.6 428.4 336.9 435.41 326.5 436.93C311.07 439.18 278.43 443.94 206.43 454.45C192.04 456.55 181.34 468.89 181.34 483.44L181.34 693.76C181.34 709.94 194.46 723.05 210.64 723.05L487.72 723.05C508.15 723.05 522.4 702.62 515.14 683.51C503.77 653.58 497.58 621.22 497.58 587.52C497.58 445.74 607.27 328.42 746.94 317.32C757.67 316.47 766.78 309.69 771.05 300.15C775.2 309.72 784.32 316.69 795.34 317.77C932.31 331.22 1039.7 447.06 1039.7 587.52C1039.7 620.13 1033.88 652.67 1022.08 683.66C1014.84 702.7 1029.21 723.05 1049.58 723.05L1326.64 723.05C1342.82 723.05 1355.93 709.94 1355.93 693.76L1355.93 458.11C1353.71 457.78 1353.8 457.8 1354.14 457.84Z" />
				<path id="&lt;Path&gt;" class="shp0" d="M1354.56 457.91C1354.56 457.91 1354.57 457.91 1354.57 457.91C1354.57 457.91 1354.57 457.91 1354.56 457.91Z" />
				<path id="&lt;Path&gt;" class="shp0" d="M1354.57 457.91C1354.59 457.91 1354.59 457.91 1354.57 457.91Z" />
				<path id="&lt;Path&gt;" class="shp0" d="M803.34 410.16C789.57 407.47 776.58 415.04 771.23 426.96C766.2 414.69 753.32 406.93 739.71 409.13C653.52 423.03 587.93 497.99 587.93 587.52C587.93 637.01 607.96 681.98 640.45 714.71C645.85 720.14 653.28 723.05 660.94 723.05L745.14 723.05C756.6 723.05 766.76 716.4 771.54 706.4C776.26 716.24 786.29 723.05 797.93 723.05L876.34 723.05C884 723.05 891.43 720.14 896.83 714.71C929.32 681.98 949.35 637.01 949.35 587.52C949.35 499.75 886.44 426.39 803.34 410.16Z" />
			</g>
			<g id="&lt;Group&gt;">
				<path id="&lt;Path&gt;" class="shp1" d="M773.16 1274.65L778.48 1243.3C779.19 1239.11 778.98 1234.81 777.86 1230.71L768.64 1196.81C768.54 1196.51 760.03 1169.61 760.13 1169.92C716.91 1026.26 606.71 922.95 478.88 880.6C397.05 853.5 334.69 859.29 301.33 858.58L210.64 858.58C194.46 858.58 181.35 871.7 181.35 887.87L181.35 919.64C181.35 935.82 194.46 948.93 210.64 948.93L341.33 948.93C495.06 948.93 629.12 1047.66 673.69 1196.22C674.33 1198.25 687.29 1239.19 692.49 1255.6C693.71 1259.48 695.73 1263.05 698.42 1266.11L718.36 1288.76C723.33 1294.4 730.28 1297.92 737.77 1298.58L741.7 1298.93C756.91 1300.27 770.61 1289.7 773.16 1274.65Z" />
				<path id="&lt;Path&gt;" class="shp1" d="M840.65 1264.91C842.17 1262.63 843.36 1260.16 844.18 1257.55C848.8 1242.98 864.62 1192.99 863.45 1196.71L863.5 1196.55L863.55 1196.38C865.89 1191.61 888.82 1091.29 988.51 1017.11C1047.05 973.56 1119.11 948.93 1195.96 948.93L1326.64 948.93C1342.82 948.93 1355.94 935.82 1355.94 919.64L1355.94 887.87C1355.94 871.7 1342.82 858.58 1326.64 858.58L1195.96 858.58C1000.44 858.58 832.11 987.22 777.16 1169.92C777.06 1170.23 770.68 1190.4 770.77 1190.09L770.01 1192.5C769.1 1195.36 768.64 1198.35 768.64 1201.35L768.64 1276.25C768.64 1290.68 779.15 1302.96 793.4 1305.19L793.4 1305.19C804.7 1306.96 815.99 1301.99 822.32 1292.47L840.65 1264.91Z" />
			</g>
			<path id="&lt;Path&gt;" class="shp1" d="M90.99 1194.01L90.99 1068.58C90.99 1052.4 104.09 1039.29 120.27 1039.29C207.99 1039.29 461.71 1039.29 448.67 1039.29C591.53 1039.29 716.59 1125.28 758.37 1258.27C764.77 1278.63 748.17 1298.85 726.98 1296.31C598.32 1280.87 222.02 1235.72 116.78 1223.09C102.06 1221.32 90.99 1208.83 90.99 1194.01Z" />
			<path id="&lt;Path&gt;" class="shp1" d="M1446.29 1068.58C1446.29 1052.4 1433.17 1039.29 1416.99 1039.29L1088.61 1039.29C943.82 1039.29 820.29 1126.81 778.92 1258.3C772.51 1278.65 789.14 1298.85 810.32 1296.31C967.48 1277.45 1274.97 1240.55 1420.51 1223.09C1435.23 1221.32 1446.29 1208.83 1446.29 1194.01L1446.29 1068.58Z" />
			<path id="&lt;Path&gt;" class="shp1" d="M772.11 1307.03C769.83 1303.27 766.74 1300.03 763.04 1297.64C676.48 1241.84 575.12 1219.99 470.23 1219.99L29.93 1219.99C13.75 1219.99 0.64 1233.11 0.64 1249.29L0.64 1373.61C0.64 1388.9 12.4 1401.62 27.64 1402.82L382.35 1430.64C383.87 1430.76 385.41 1430.76 386.93 1430.64L753.67 1401.87C763.07 1401.14 771.54 1395.92 776.43 1387.85L789.56 1366.19C795.21 1356.86 795.21 1345.15 789.56 1335.82L772.11 1307.03Z" />
			<path id="&lt;Path&gt;" class="shp1" d="M1536.64 1249.29C1536.64 1233.11 1523.53 1219.99 1507.35 1219.99L1067.05 1219.99C965.9 1219.99 867.5 1240.31 782.51 1292.44C773.86 1297.74 768.64 1307.22 768.64 1317.37L768.64 1373.61C768.64 1388.9 780.4 1401.62 795.64 1402.82L1150.35 1430.64C1151.87 1430.76 1153.41 1430.76 1154.93 1430.64L1509.64 1402.82C1524.88 1401.62 1536.64 1388.9 1536.64 1373.61L1536.64 1249.29Z" />
			<path id="&lt;Path&gt;" class="shp0" d="M1507.35 1400.7L797.93 1400.7C788.89 1400.7 780.81 1404.8 775.43 1411.24C769.91 1404.61 761.7 1400.7 752.96 1400.7L29.93 1400.7C13.75 1400.7 0.64 1413.81 0.64 1429.99L0.64 1461.76C0.64 1477.94 13.75 1491.05 29.93 1491.05L752.96 1491.05C761.7 1491.05 769.91 1487.14 775.43 1480.51C780.81 1486.95 788.89 1491.05 797.93 1491.05L1507.35 1491.05C1523.53 1491.05 1536.64 1477.94 1536.64 1461.76L1536.64 1429.99C1536.64 1413.81 1523.53 1400.7 1507.35 1400.7Z" />
		</g>
	</g>
</svg>