<?xml version="1.0" encoding="utf-8"?>
<!-- Generator: Adobe Illustrator 25.1.0, SVG Export Plug-In . SVG Version: 6.00 Build 0)  -->
<svg version="1.1" id="Capa_1" xmlns="http://www.w3.org/2000/svg" xmlns:xlink="http://www.w3.org/1999/xlink" x="0px" y="0px"
	 viewBox="0 0 512 512" style="enable-background:new 0 0 512 512;" xml:space="preserve">
<style type="text/css">
	.st0{fill:#FFC344;}
	.st1{fill:#60B7FF;}
	.st2{fill:#26A6FE;}
	.st3{fill:#D8ECFE;}
	.st4{fill:#C4E2FF;}
	.st5{fill:#7A8C98;}
	.st6{fill:#B3DAFE;}
</style>
<g id="_x30_2_setting">
	<path class="st0" d="M500.4,132.6h-28.9c-2.7-9.4-6.5-18.4-11.1-26.9l20.5-20.5c4.5-4.5,4.5-11.8,0-16.4l-34.9-34.9
		c-4.5-4.5-11.8-4.5-16.4,0L409,54.4c-8.4-4.7-17.4-8.4-26.9-11.1V14.3c0-6.4-5.2-11.6-11.6-11.6h-49.4c-6.4,0-11.6,5.2-11.6,11.6
		v28.9c-9.4,2.7-18.4,6.5-26.9,11.1l-20.5-20.5c-4.5-4.5-11.8-4.5-16.4,0L211,68.9c-4.5,4.5-4.5,11.8,0,16.4l20.5,20.5
		c-4.7,8.4-8.4,17.4-11.1,26.9h-28.9c-6.4,0-11.6,5.2-11.6,11.6v49.4c0,6.4,5.2,11.6,11.6,11.6h28.9c2.7,9.4,6.5,18.4,11.1,26.9
		L211,252.5c-4.5,4.5-4.5,11.8,0,16.4l34.9,34.9c4.5,4.5,11.8,4.5,16.4,0l20.5-20.5c8.4,4.7,17.4,8.4,26.9,11.1v28.9
		c0,6.4,5.2,11.6,11.6,11.6h49.4c6.4,0,11.6-5.2,11.6-11.6v-28.9c9.4-2.7,18.4-6.5,26.9-11.1l20.5,20.5c4.5,4.5,11.8,4.5,16.4,0
		l34.9-34.9c4.5-4.5,4.5-11.8,0-16.4L460.3,232c4.7-8.4,8.4-17.4,11.1-26.9h28.9c6.4,0,11.6-5.2,11.6-11.6v-49.4
		C512,137.8,506.8,132.6,500.4,132.6L500.4,132.6z M350.5,239.3c-42.5,2.7-77.8-32.5-75-75c2.2-35.2,30.6-63.6,65.8-65.8
		c42.5-2.7,77.8,32.5,75,75C414.1,208.6,385.7,237,350.5,239.3L350.5,239.3z"/>
	<path class="st1" d="M330.5,184.3H20.6C9.2,184.3,0,193.5,0,204.9v98.6h351.1c0-12.1,0-87.1,0-98.6
		C351.1,193.5,341.8,184.3,330.5,184.3L330.5,184.3z"/>
	<path class="st2" d="M330.5,184.3h-38c11.4,0,20.6,9.2,20.6,20.6v98.6h38c0-12.1,0-87.1,0-98.6
		C351.1,193.5,341.8,184.3,330.5,184.3L330.5,184.3z"/>
	<path class="st3" d="M351.1,287.8v200.9c0,11.4-9.2,20.6-20.6,20.6H20.6C9.2,509.3,0,500,0,488.7v-83.5V287.8L351.1,287.8z"/>
	<path class="st4" d="M313.1,287.8v200.9c0,11.4-9.2,20.6-20.6,20.6h38c11.4,0,20.6-9.2,20.6-20.6V287.8H313.1z"/>
	<g>
		<path class="st5" d="M286.3,373.6H64.8c-9.1,0-16.5-7.4-16.5-16.5s7.4-16.5,16.5-16.5h221.5c9.1,0,16.5,7.4,16.5,16.5
			S295.4,373.6,286.3,373.6z"/>
	</g>
	<g>
		<path class="st5" d="M286.3,456.5H64.8c-9.1,0-16.5-7.4-16.5-16.5s7.4-16.5,16.5-16.5h221.5c9.1,0,16.5,7.4,16.5,16.5
			S295.4,456.5,286.3,456.5z"/>
	</g>
	<g>
		<path class="st6" d="M307.9,252.2h-31c-2.8,0-5.2-2.3-5.2-5.2v-22c0-2.8,2.3-5.2,5.2-5.2h31c2.8,0,5.2,2.3,5.2,5.2v22
			C313.1,249.9,310.8,252.2,307.9,252.2z"/>
		<path class="st6" d="M227.9,252.2h-31c-2.8,0-5.2-2.3-5.2-5.2v-22c0-2.8,2.3-5.2,5.2-5.2h31c2.8,0,5.2,2.3,5.2,5.2v22
			C233,249.9,230.7,252.2,227.9,252.2z"/>
		<path class="st6" d="M147.8,252.2h-31c-2.8,0-5.2-2.3-5.2-5.2v-22c0-2.8,2.3-5.2,5.2-5.2h31c2.8,0,5.2,2.3,5.2,5.2v22
			C152.9,249.9,150.6,252.2,147.8,252.2z"/>
	</g>
</g>
</svg>
