<?xml version="1.0" encoding="utf-8"?>
<!-- Generator: Adobe Illustrator 25.1.0, SVG Export Plug-In . SVG Version: 6.00 Build 0)  -->
<svg version="1.1" id="Capa_1" xmlns="http://www.w3.org/2000/svg" xmlns:xlink="http://www.w3.org/1999/xlink" x="0px" y="0px"
	 viewBox="0 0 512 512" style="enable-background:new 0 0 512 512;" xml:space="preserve">
<style type="text/css">
	.st0{fill:#393E9F;}
	.st1{fill:#340D66;}
	.st2{fill:#FE4945;}
	.st3{fill:#FA185E;}
	.st4{fill:#13CFFE;}
	.st5{fill:#28ABF9;}
	.st6{fill:#FFB9AB;}
	.st7{fill:#E39E8D;}
	.st8{fill:#FFB81F;}
	.st9{fill:#FC9B28;}
	.st10{fill:#FCCBC3;}
	.st11{fill:#318DEF;}
</style>
<g>
	<path class="st0" d="M414.3,158.3V170h-30v-11.7C384.3,87.6,326.8,30,256,30S127.7,87.6,127.7,158.3V170h-30v-11.7
		C97.7,71,168.7,0,256,0S414.3,71,414.3,158.3z"/>
	<path class="st1" d="M414.3,158.3V170h-30v-11.7C384.3,87.6,326.8,30,256,30V0C343.3,0,414.3,71,414.3,158.3z"/>
	<path class="st2" d="M175.3,248.6h-55c-13.8,0-24.9-11.2-24.9-24.9v-43.9c0-13.8,11.2-24.9,24.9-24.9h55V248.6z"/>
	<path class="st3" d="M334.7,248.6h57c13.8,0,24.9-11.2,24.9-24.9v-43.9c0-13.8-11.2-24.9-24.9-24.9h-57V248.6z"/>
	<path class="st4" d="M512,469.6V512H408.7l-15-15l-15,15H133.3l-15-15l-15,15H0v-42.4c0-18.3,11.8-34.6,29.2-40.3l153.7-50.4h146.7
		v0.1l153.2,50.2C500.2,435,512,451.2,512,469.6z"/>
	<path class="st5" d="M512,469.6V512H408.7l-15-15l-15,15H256V378.9h73.6v0.1l153.2,50.2C500.2,435,512,451.2,512,469.6z"/>
	<path class="st6" d="M329.6,306.3v72.6c0,0-37,36.6-73.6,36.6s-73.1-36.6-73.1-36.6v-72.6H329.6z"/>
	<path class="st7" d="M329.6,306.3v72.6c0,0-37,36.6-73.6,36.6V306.3H329.6z"/>
	<path class="st8" d="M350.7,152.7v31.5l-9.7,10.5H171l-9.7-10.5v-31.5c0-26.2,10.6-49.8,27.7-67S229.8,58,256,58
		C308.3,58,350.7,100.4,350.7,152.7z"/>
	<path class="st9" d="M350.7,152.7v31.5l-9.7,10.5h-85V58C308.3,58,350.7,100.4,350.7,152.7z"/>
	<path class="st10" d="M350.7,184.3v64.9c0,6.7-0.6,13.2-1.8,19.5c-1,5.1-14.2,15-14.2,15s6.3,10.2,3.8,15
		C322.3,329.3,291.4,350,256,350c-26.2,0-49.8-11.3-67-29.5s-27.7-43.5-27.7-71.3v-64.9h50.5c17,0,32.5-6.5,44.2-17.1
		c13.3-12,21.6-29.4,21.6-48.7c0,36.3,29.5,65.8,65.8,65.8L350.7,184.3z"/>
	<path class="st6" d="M350.7,184.3v64.9c0,6.7-0.6,13.2-1.8,19.5c-1,5.1-14.2,15-14.2,15s6.3,10.2,3.8,15
		C322.3,329.3,291.4,350,256,350V167.2c13.3-12,21.6-29.4,21.6-48.7c0,36.3,29.5,65.8,65.8,65.8L350.7,184.3z"/>
	<path class="st1" d="M348.9,268.7c-2,10.7-5.5,20.8-10.4,30h-65.3v-30H348.9z"/>
	<path class="st5" d="M103.3,466h30v46h-30L103.3,466z"/>
	<path class="st11" d="M378.7,466h30v46h-30V466z"/>
</g>
</svg>
