<svg version="1.2" baseProfile="tiny-ps" xmlns="http://www.w3.org/2000/svg" viewBox="0 0 1536 1538" width="1536" height="1538">
	<title>Layer 1</title>
	<style>
		tspan { white-space:pre }
		.shp0 { fill: #71d0f4 } 
		.shp1 { fill: #162e6a } 
		.shp2 { fill: #ffffff } 
	</style>
	<g id="Layer 1">
		<path id="&lt;Path&gt;" class="shp0" d="M1319.25 1461.37L1512.58 1514.86L1459.11 1321.53C1507.33 1247.31 1535.36 1158.75 1535.36 1063.64C1535.36 801.85 1323.15 589.64 1061.36 589.64C799.57 589.64 587.36 801.85 587.36 1063.64C587.36 1325.43 799.57 1537.64 1061.36 1537.64C1156.47 1537.64 1245.03 1509.61 1319.25 1461.37Z" />
		<path id="&lt;Path&gt;" class="shp1" d="M586.86 0.64C263.46 0.64 0.36 263.74 0.36 587.14C0.36 692.54 28.41 795.16 81.69 885.25L2.52 1171.47L288.75 1092.31C378.84 1145.59 481.46 1173.64 586.86 1173.64C910.26 1173.64 1173.36 910.54 1173.36 587.14C1173.36 263.74 910.26 0.64 586.86 0.64Z" />
		<g id="&lt;Group&gt;">
			<path id="&lt;Path&gt;" class="shp2" d="M540.86 904.64L630.86 904.64L630.86 814.64L540.86 814.64L540.86 904.64Z" />
			<path id="&lt;Path&gt;" class="shp2" d="M585.86 271.64C486.6 271.64 405.86 352.38 405.86 451.64L495.86 451.64C495.86 402.01 536.23 361.64 585.86 361.64C635.49 361.64 675.86 402.01 675.86 451.64C675.86 477.2 665.45 500.79 646.56 518.07L585.86 573.63L540.86 614.82L540.86 724.64L585.86 724.64L630.86 724.64L630.86 654.46L707.32 584.47C744.52 550.43 765.86 502.02 765.86 451.64C765.86 352.38 685.12 271.64 585.86 271.64Z" />
		</g>
	</g>
</svg>